<?xml version="1.0" encoding="UTF-8"?>
<svg xmlns="http://www.w3.org/2000/svg" xmlns:xlink="http://www.w3.org/1999/xlink" width="294.80315pt" height="153.297638pt" viewBox="0 0 294.80315 153.297638" version="1.2">
<defs>
<g>
<symbol overflow="visible" id="glyph0-0">
<path style="stroke:none;" d="M 0.863281 -0.578125 L 1.984375 -0.578125 L 1.984375 -4.453125 L 0.765625 -4.207031 L 0.765625 -4.835938 L 1.980469 -5.078125 L 2.667969 -5.078125 L 2.667969 -0.578125 L 3.789062 -0.578125 L 3.789062 0 L 0.863281 0 Z M 0.863281 -0.578125 "/>
</symbol>
<symbol overflow="visible" id="glyph0-1">
<path style="stroke:none;" d="M 2.214844 -4.625 C 1.859375 -4.625 1.59375 -4.453125 1.414062 -4.105469 C 1.242188 -3.753906 1.148438 -3.234375 1.148438 -2.535156 C 1.148438 -1.839844 1.242188 -1.316406 1.414062 -0.96875 C 1.59375 -0.621094 1.859375 -0.445312 2.214844 -0.445312 C 2.570312 -0.445312 2.84375 -0.621094 3.015625 -0.96875 C 3.191406 -1.316406 3.28125 -1.839844 3.28125 -2.535156 C 3.28125 -3.234375 3.191406 -3.753906 3.015625 -4.105469 C 2.84375 -4.453125 2.570312 -4.625 2.214844 -4.625 Z M 2.214844 -5.171875 C 2.78125 -5.171875 3.21875 -4.949219 3.519531 -4.496094 C 3.820312 -4.042969 3.972656 -3.394531 3.972656 -2.535156 C 3.972656 -1.679688 3.820312 -1.03125 3.519531 -0.578125 C 3.21875 -0.125 2.78125 0.0976562 2.214844 0.0976562 C 1.644531 0.0976562 1.207031 -0.125 0.90625 -0.578125 C 0.605469 -1.03125 0.460938 -1.679688 0.460938 -2.535156 C 0.460938 -3.394531 0.605469 -4.042969 0.90625 -4.496094 C 1.207031 -4.949219 1.644531 -5.171875 2.214844 -5.171875 Z M 2.214844 -5.171875 "/>
</symbol>
<symbol overflow="visible" id="glyph0-2">
<path style="stroke:none;" d="M 0.746094 -0.863281 L 1.464844 -0.863281 L 1.464844 0 L 0.746094 0 Z M 0.746094 -0.863281 "/>
</symbol>
<symbol overflow="visible" id="glyph0-3">
<path style="stroke:none;" d="M 1.335938 -0.578125 L 3.734375 -0.578125 L 3.734375 0 L 0.507812 0 L 0.507812 -0.578125 C 0.765625 -0.851562 1.121094 -1.210938 1.574219 -1.664062 C 2.027344 -2.117188 2.304688 -2.410156 2.425781 -2.542969 C 2.648438 -2.789062 2.800781 -2.996094 2.886719 -3.171875 C 2.976562 -3.34375 3.015625 -3.511719 3.015625 -3.679688 C 3.015625 -3.949219 2.917969 -4.167969 2.730469 -4.339844 C 2.542969 -4.507812 2.300781 -4.59375 1.992188 -4.59375 C 1.777344 -4.59375 1.554688 -4.558594 1.308594 -4.480469 C 1.074219 -4.402344 0.816406 -4.292969 0.542969 -4.140625 L 0.542969 -4.835938 C 0.820312 -4.949219 1.078125 -5.03125 1.316406 -5.085938 C 1.5625 -5.140625 1.777344 -5.171875 1.980469 -5.171875 C 2.5 -5.171875 2.925781 -5.039062 3.238281 -4.78125 C 3.554688 -4.515625 3.707031 -4.160156 3.707031 -3.722656 C 3.707031 -3.511719 3.664062 -3.316406 3.589844 -3.128906 C 3.511719 -2.941406 3.371094 -2.722656 3.164062 -2.464844 C 3.109375 -2.402344 2.925781 -2.207031 2.621094 -1.894531 C 2.320312 -1.582031 1.886719 -1.144531 1.335938 -0.578125 Z M 1.335938 -0.578125 "/>
</symbol>
<symbol overflow="visible" id="glyph0-4">
<path style="stroke:none;" d="M 2.632812 -4.480469 L 0.898438 -1.769531 L 2.632812 -1.769531 Z M 2.453125 -5.078125 L 3.316406 -5.078125 L 3.316406 -1.769531 L 4.042969 -1.769531 L 4.042969 -1.199219 L 3.316406 -1.199219 L 3.316406 0 L 2.632812 0 L 2.632812 -1.199219 L 0.339844 -1.199219 L 0.339844 -1.859375 Z M 2.453125 -5.078125 "/>
</symbol>
<symbol overflow="visible" id="glyph0-5">
<path style="stroke:none;" d="M 2.300781 -2.816406 C 1.992188 -2.816406 1.75 -2.710938 1.566406 -2.496094 C 1.386719 -2.285156 1.296875 -2 1.296875 -1.628906 C 1.296875 -1.261719 1.386719 -0.976562 1.566406 -0.757812 C 1.75 -0.550781 1.992188 -0.445312 2.300781 -0.445312 C 2.605469 -0.445312 2.851562 -0.550781 3.03125 -0.757812 C 3.210938 -0.976562 3.304688 -1.261719 3.304688 -1.628906 C 3.304688 -2 3.210938 -2.285156 3.03125 -2.496094 C 2.851562 -2.710938 2.605469 -2.816406 2.300781 -2.816406 Z M 3.664062 -4.96875 L 3.664062 -4.339844 C 3.492188 -4.425781 3.316406 -4.488281 3.144531 -4.527344 C 2.96875 -4.570312 2.792969 -4.59375 2.621094 -4.59375 C 2.167969 -4.59375 1.820312 -4.4375 1.582031 -4.132812 C 1.335938 -3.824219 1.207031 -3.367188 1.171875 -2.746094 C 1.304688 -2.949219 1.46875 -3.09375 1.671875 -3.199219 C 1.875 -3.304688 2.097656 -3.359375 2.339844 -3.359375 C 2.851562 -3.359375 3.253906 -3.207031 3.546875 -2.890625 C 3.847656 -2.585938 3.992188 -2.167969 3.992188 -1.628906 C 3.992188 -1.109375 3.839844 -0.691406 3.53125 -0.375 C 3.21875 -0.0625 2.808594 0.0976562 2.300781 0.0976562 C 1.714844 0.0976562 1.269531 -0.125 0.953125 -0.578125 C 0.640625 -1.03125 0.488281 -1.679688 0.488281 -2.535156 C 0.488281 -3.335938 0.675781 -3.980469 1.058594 -4.453125 C 1.441406 -4.933594 1.949219 -5.171875 2.59375 -5.171875 C 2.765625 -5.171875 2.941406 -5.15625 3.113281 -5.121094 C 3.289062 -5.085938 3.476562 -5.039062 3.664062 -4.96875 Z M 3.664062 -4.96875 "/>
</symbol>
<symbol overflow="visible" id="glyph0-6">
<path style="stroke:none;" d="M 2.214844 -2.410156 C 1.886719 -2.410156 1.628906 -2.328125 1.441406 -2.152344 C 1.253906 -1.980469 1.164062 -1.734375 1.164062 -1.429688 C 1.164062 -1.121094 1.253906 -0.886719 1.441406 -0.710938 C 1.628906 -0.535156 1.886719 -0.445312 2.214844 -0.445312 C 2.542969 -0.445312 2.800781 -0.535156 2.988281 -0.710938 C 3.175781 -0.886719 3.269531 -1.128906 3.269531 -1.429688 C 3.269531 -1.734375 3.175781 -1.980469 2.988281 -2.152344 C 2.800781 -2.328125 2.542969 -2.410156 2.214844 -2.410156 Z M 1.527344 -2.703125 C 1.234375 -2.78125 1.003906 -2.914062 0.835938 -3.113281 C 0.675781 -3.316406 0.59375 -3.566406 0.59375 -3.851562 C 0.59375 -4.265625 0.738281 -4.585938 1.023438 -4.816406 C 1.308594 -5.050781 1.707031 -5.171875 2.214844 -5.171875 C 2.722656 -5.171875 3.121094 -5.050781 3.40625 -4.816406 C 3.691406 -4.585938 3.839844 -4.265625 3.839844 -3.851562 C 3.839844 -3.566406 3.753906 -3.316406 3.589844 -3.113281 C 3.429688 -2.914062 3.199219 -2.78125 2.90625 -2.703125 C 3.234375 -2.628906 3.492188 -2.480469 3.679688 -2.25 C 3.867188 -2.027344 3.957031 -1.757812 3.957031 -1.429688 C 3.957031 -0.933594 3.804688 -0.558594 3.503906 -0.292969 C 3.207031 -0.0351562 2.773438 0.0976562 2.214844 0.0976562 C 1.652344 0.0976562 1.21875 -0.0351562 0.917969 -0.292969 C 0.621094 -0.558594 0.472656 -0.933594 0.472656 -1.429688 C 0.472656 -1.757812 0.5625 -2.027344 0.753906 -2.25 C 0.941406 -2.480469 1.199219 -2.628906 1.527344 -2.703125 Z M 1.273438 -3.789062 C 1.273438 -3.527344 1.359375 -3.324219 1.519531 -3.175781 C 1.6875 -3.03125 1.917969 -2.953125 2.214844 -2.953125 C 2.507812 -2.953125 2.738281 -3.03125 2.90625 -3.175781 C 3.074219 -3.324219 3.15625 -3.527344 3.15625 -3.789062 C 3.15625 -4.054688 3.074219 -4.257812 2.90625 -4.402344 C 2.738281 -4.550781 2.507812 -4.625 2.214844 -4.625 C 1.917969 -4.625 1.6875 -4.550781 1.519531 -4.402344 C 1.359375 -4.257812 1.273438 -4.054688 1.273438 -3.789062 Z M 1.273438 -3.789062 "/>
</symbol>
<symbol overflow="visible" id="glyph0-7">
<path style="stroke:none;" d="M 0.65625 -5.296875 L 1.28125 -5.296875 L 1.28125 0 L 0.65625 0 Z M 0.65625 -5.296875 "/>
</symbol>
<symbol overflow="visible" id="glyph0-8">
<path style="stroke:none;" d="M 2.132812 -3.371094 C 1.796875 -3.371094 1.53125 -3.238281 1.335938 -2.976562 C 1.144531 -2.71875 1.046875 -2.355469 1.046875 -1.902344 C 1.046875 -1.449219 1.144531 -1.085938 1.332031 -0.820312 C 1.527344 -0.5625 1.789062 -0.433594 2.132812 -0.433594 C 2.464844 -0.433594 2.730469 -0.5625 2.925781 -0.828125 C 3.121094 -1.085938 3.21875 -1.449219 3.21875 -1.902344 C 3.21875 -2.355469 3.121094 -2.710938 2.925781 -2.976562 C 2.730469 -3.238281 2.464844 -3.371094 2.132812 -3.371094 Z M 2.132812 -3.902344 C 2.675781 -3.902344 3.101562 -3.726562 3.414062 -3.371094 C 3.726562 -3.015625 3.882812 -2.53125 3.882812 -1.902344 C 3.882812 -1.28125 3.726562 -0.789062 3.414062 -0.433594 C 3.101562 -0.078125 2.675781 0.0976562 2.132812 0.0976562 C 1.582031 0.0976562 1.15625 -0.078125 0.851562 -0.433594 C 0.535156 -0.789062 0.382812 -1.28125 0.382812 -1.902344 C 0.382812 -2.53125 0.535156 -3.015625 0.851562 -3.371094 C 1.15625 -3.726562 1.582031 -3.902344 2.132812 -3.902344 Z M 2.132812 -3.902344 "/>
</symbol>
<symbol overflow="visible" id="glyph0-9">
<path style="stroke:none;" d="M 0.292969 -3.8125 L 0.917969 -3.8125 L 1.699219 -0.835938 L 2.480469 -3.8125 L 3.21875 -3.8125 L 4 -0.835938 L 4.78125 -3.8125 L 5.40625 -3.8125 L 4.410156 0 L 3.671875 0 L 2.851562 -3.121094 L 2.027344 0 L 1.289062 0 Z M 0.292969 -3.8125 "/>
</symbol>
<symbol overflow="visible" id="glyph0-10">
<path style="stroke:none;" d="M 3.917969 -2.0625 L 3.917969 -1.757812 L 1.039062 -1.757812 C 1.066406 -1.324219 1.199219 -0.996094 1.429688 -0.765625 C 1.660156 -0.542969 1.984375 -0.433594 2.398438 -0.433594 C 2.640625 -0.433594 2.871094 -0.460938 3.09375 -0.523438 C 3.324219 -0.578125 3.546875 -0.667969 3.769531 -0.789062 L 3.769531 -0.195312 C 3.546875 -0.0976562 3.316406 -0.0273438 3.078125 0.0195312 C 2.84375 0.0703125 2.605469 0.0976562 2.363281 0.0976562 C 1.757812 0.0976562 1.269531 -0.078125 0.914062 -0.433594 C 0.558594 -0.789062 0.382812 -1.261719 0.382812 -1.867188 C 0.382812 -2.488281 0.550781 -2.980469 0.886719 -3.351562 C 1.226562 -3.722656 1.679688 -3.902344 2.25 -3.902344 C 2.765625 -3.902344 3.171875 -3.734375 3.46875 -3.40625 C 3.769531 -3.078125 3.917969 -2.628906 3.917969 -2.0625 Z M 3.289062 -2.242188 C 3.28125 -2.585938 3.191406 -2.863281 3.003906 -3.066406 C 2.816406 -3.269531 2.570312 -3.371094 2.257812 -3.371094 C 1.910156 -3.371094 1.628906 -3.273438 1.421875 -3.074219 C 1.210938 -2.878906 1.09375 -2.597656 1.058594 -2.242188 Z M 3.289062 -2.242188 "/>
</symbol>
<symbol overflow="visible" id="glyph0-11">
<path style="stroke:none;" d="M 3.085938 -3.699219 L 3.085938 -3.109375 C 2.914062 -3.199219 2.722656 -3.261719 2.535156 -3.308594 C 2.347656 -3.359375 2.144531 -3.378906 1.945312 -3.378906 C 1.628906 -3.378906 1.402344 -3.332031 1.242188 -3.234375 C 1.085938 -3.144531 1.011719 -2.996094 1.011719 -2.808594 C 1.011719 -2.660156 1.066406 -2.550781 1.175781 -2.464844 C 1.289062 -2.382812 1.511719 -2.304688 1.847656 -2.230469 L 2.0625 -2.179688 C 2.507812 -2.082031 2.820312 -1.949219 3.011719 -1.777344 C 3.199219 -1.601562 3.289062 -1.367188 3.289062 -1.050781 C 3.289062 -0.695312 3.148438 -0.417969 2.871094 -0.210938 C 2.59375 -0.0078125 2.207031 0.0976562 1.714844 0.0976562 C 1.511719 0.0976562 1.296875 0.078125 1.074219 0.0351562 C 0.855469 0 0.621094 -0.0625 0.375 -0.140625 L 0.375 -0.789062 C 0.605469 -0.667969 0.835938 -0.578125 1.058594 -0.515625 C 1.289062 -0.453125 1.511719 -0.425781 1.726562 -0.425781 C 2.027344 -0.425781 2.25 -0.472656 2.410156 -0.578125 C 2.570312 -0.675781 2.648438 -0.816406 2.648438 -1.003906 C 2.648438 -1.175781 2.59375 -1.304688 2.472656 -1.394531 C 2.363281 -1.484375 2.109375 -1.574219 1.722656 -1.660156 L 1.503906 -1.707031 C 1.113281 -1.789062 0.835938 -1.917969 0.660156 -2.082031 C 0.488281 -2.25 0.402344 -2.480469 0.402344 -2.78125 C 0.402344 -3.136719 0.53125 -3.414062 0.789062 -3.609375 C 1.039062 -3.804688 1.402344 -3.902344 1.867188 -3.902344 C 2.097656 -3.902344 2.320312 -3.886719 2.523438 -3.851562 C 2.722656 -3.820312 2.914062 -3.761719 3.085938 -3.699219 Z M 3.085938 -3.699219 "/>
</symbol>
<symbol overflow="visible" id="glyph0-12">
<path style="stroke:none;" d="M 1.273438 -4.890625 L 1.273438 -3.8125 L 2.5625 -3.8125 L 2.5625 -3.324219 L 1.273438 -3.324219 L 1.273438 -1.253906 C 1.273438 -0.941406 1.316406 -0.746094 1.402344 -0.65625 C 1.492188 -0.5625 1.664062 -0.523438 1.921875 -0.523438 L 2.5625 -0.523438 L 2.5625 0 L 1.921875 0 C 1.441406 0 1.109375 -0.0898438 0.917969 -0.273438 C 0.738281 -0.453125 0.648438 -0.78125 0.648438 -1.253906 L 0.648438 -3.324219 L 0.1875 -3.324219 L 0.1875 -3.8125 L 0.648438 -3.8125 L 0.648438 -4.890625 Z M 1.273438 -4.890625 "/>
</symbol>
<symbol overflow="visible" id="glyph0-13">
<path style="stroke:none;" d=""/>
</symbol>
<symbol overflow="visible" id="glyph0-14">
<path style="stroke:none;" d="M 0.210938 -3.8125 L 0.871094 -3.8125 L 2.0625 -0.613281 L 3.253906 -3.8125 L 3.917969 -3.8125 L 2.488281 0 L 1.636719 0 Z M 0.210938 -3.8125 "/>
</symbol>
<symbol overflow="visible" id="glyph0-15">
<path style="stroke:none;" d="M 2.390625 -1.917969 C 1.882812 -1.917969 1.53125 -1.859375 1.335938 -1.742188 C 1.144531 -1.625 1.046875 -1.429688 1.046875 -1.148438 C 1.046875 -0.925781 1.113281 -0.753906 1.261719 -0.621094 C 1.40625 -0.488281 1.609375 -0.425781 1.859375 -0.425781 C 2.207031 -0.425781 2.488281 -0.550781 2.695312 -0.792969 C 2.90625 -1.039062 3.011719 -1.367188 3.011719 -1.777344 L 3.011719 -1.917969 Z M 3.636719 -2.175781 L 3.636719 0 L 3.011719 0 L 3.011719 -0.578125 C 2.863281 -0.347656 2.691406 -0.175781 2.472656 -0.0625 C 2.265625 0.0429688 2.007812 0.0976562 1.691406 0.0976562 C 1.304688 0.0976562 0.988281 -0.015625 0.757812 -0.230469 C 0.53125 -0.445312 0.417969 -0.738281 0.417969 -1.109375 C 0.417969 -1.53125 0.5625 -1.859375 0.851562 -2.078125 C 1.136719 -2.292969 1.566406 -2.402344 2.132812 -2.402344 L 3.011719 -2.402344 L 3.011719 -2.464844 C 3.011719 -2.753906 2.914062 -2.976562 2.722656 -3.136719 C 2.535156 -3.296875 2.273438 -3.371094 1.929688 -3.371094 C 1.714844 -3.371094 1.5 -3.34375 1.296875 -3.296875 C 1.085938 -3.238281 0.886719 -3.164062 0.695312 -3.058594 L 0.695312 -3.636719 C 0.925781 -3.726562 1.148438 -3.789062 1.367188 -3.832031 C 1.582031 -3.882812 1.789062 -3.902344 1.992188 -3.902344 C 2.542969 -3.902344 2.953125 -3.761719 3.226562 -3.476562 C 3.496094 -3.191406 3.636719 -2.753906 3.636719 -2.175781 Z M 3.636719 -2.175781 "/>
</symbol>
<symbol overflow="visible" id="glyph0-16">
<path style="stroke:none;" d="M 0.65625 -3.8125 L 1.28125 -3.8125 L 1.28125 0 L 0.65625 0 Z M 0.65625 -5.296875 L 1.28125 -5.296875 L 1.28125 -4.5 L 0.65625 -4.5 Z M 0.65625 -5.296875 "/>
</symbol>
<symbol overflow="visible" id="glyph0-17">
<path style="stroke:none;" d="M 3.164062 -3.234375 L 3.164062 -5.296875 L 3.789062 -5.296875 L 3.789062 0 L 3.164062 0 L 3.164062 -0.570312 C 3.03125 -0.339844 2.863281 -0.175781 2.660156 -0.0625 C 2.460938 0.0429688 2.222656 0.0976562 1.945312 0.0976562 C 1.484375 0.0976562 1.109375 -0.0820312 0.816406 -0.453125 C 0.53125 -0.820312 0.382812 -1.304688 0.382812 -1.902344 C 0.382812 -2.5 0.53125 -2.980469 0.816406 -3.351562 C 1.109375 -3.722656 1.484375 -3.902344 1.945312 -3.902344 C 2.222656 -3.902344 2.460938 -3.847656 2.660156 -3.734375 C 2.863281 -3.628906 3.03125 -3.464844 3.164062 -3.234375 Z M 1.03125 -1.902344 C 1.03125 -1.441406 1.121094 -1.078125 1.308594 -0.816406 C 1.5 -0.558594 1.761719 -0.425781 2.097656 -0.425781 C 2.425781 -0.425781 2.691406 -0.558594 2.878906 -0.816406 C 3.066406 -1.078125 3.164062 -1.441406 3.164062 -1.902344 C 3.164062 -2.363281 3.066406 -2.722656 2.878906 -2.980469 C 2.691406 -3.246094 2.425781 -3.378906 2.097656 -3.378906 C 1.761719 -3.378906 1.5 -3.246094 1.308594 -2.980469 C 1.121094 -2.722656 1.03125 -2.363281 1.03125 -1.902344 Z M 1.03125 -1.902344 "/>
</symbol>
<symbol overflow="visible" id="glyph0-18">
<path style="stroke:none;" d="M 3.824219 -2.300781 L 3.824219 0 L 3.199219 0 L 3.199219 -2.277344 C 3.199219 -2.640625 3.128906 -2.914062 2.988281 -3.085938 C 2.84375 -3.269531 2.632812 -3.359375 2.355469 -3.359375 C 2.015625 -3.359375 1.75 -3.253906 1.554688 -3.039062 C 1.359375 -2.820312 1.261719 -2.523438 1.261719 -2.152344 L 1.261719 0 L 0.632812 0 L 0.632812 -3.8125 L 1.261719 -3.8125 L 1.261719 -3.21875 C 1.40625 -3.449219 1.589844 -3.617188 1.789062 -3.734375 C 1.992188 -3.847656 2.230469 -3.902344 2.496094 -3.902344 C 2.933594 -3.902344 3.261719 -3.761719 3.484375 -3.492188 C 3.714844 -3.21875 3.824219 -2.820312 3.824219 -2.300781 Z M 3.824219 -2.300781 "/>
</symbol>
<symbol overflow="visible" id="glyph0-19">
<path style="stroke:none;" d="M 0.816406 -0.863281 L 1.53125 -0.863281 L 1.53125 -0.277344 L 0.976562 0.808594 L 0.535156 0.808594 L 0.816406 -0.277344 Z M 0.816406 -0.863281 "/>
</symbol>
<symbol overflow="visible" id="glyph0-20">
<path style="stroke:none;" d="M 1.261719 -0.570312 L 1.261719 1.449219 L 0.632812 1.449219 L 0.632812 -3.8125 L 1.261719 -3.8125 L 1.261719 -3.234375 C 1.394531 -3.464844 1.554688 -3.628906 1.757812 -3.734375 C 1.957031 -3.847656 2.203125 -3.902344 2.480469 -3.902344 C 2.949219 -3.902344 3.324219 -3.722656 3.609375 -3.351562 C 3.894531 -2.980469 4.042969 -2.5 4.042969 -1.902344 C 4.042969 -1.304688 3.894531 -0.820312 3.609375 -0.453125 C 3.324219 -0.0820312 2.949219 0.0976562 2.480469 0.0976562 C 2.203125 0.0976562 1.957031 0.0429688 1.757812 -0.0625 C 1.554688 -0.175781 1.394531 -0.339844 1.261719 -0.570312 Z M 3.394531 -1.902344 C 3.394531 -2.363281 3.296875 -2.722656 3.109375 -2.980469 C 2.917969 -3.246094 2.65625 -3.378906 2.328125 -3.378906 C 2 -3.378906 1.734375 -3.246094 1.546875 -2.980469 C 1.359375 -2.722656 1.261719 -2.363281 1.261719 -1.902344 C 1.261719 -1.441406 1.359375 -1.078125 1.546875 -0.816406 C 1.734375 -0.558594 2 -0.425781 2.328125 -0.425781 C 2.65625 -0.425781 2.917969 -0.558594 3.109375 -0.816406 C 3.296875 -1.078125 3.394531 -1.441406 3.394531 -1.902344 Z M 3.394531 -1.902344 "/>
</symbol>
<symbol overflow="visible" id="glyph0-21">
<path style="stroke:none;" d="M 2.863281 -3.226562 C 2.792969 -3.269531 2.71875 -3.296875 2.632812 -3.316406 C 2.550781 -3.335938 2.460938 -3.34375 2.363281 -3.34375 C 2.007812 -3.34375 1.734375 -3.226562 1.546875 -2.996094 C 1.359375 -2.765625 1.261719 -2.4375 1.261719 -2.007812 L 1.261719 0 L 0.632812 0 L 0.632812 -3.8125 L 1.261719 -3.8125 L 1.261719 -3.21875 C 1.394531 -3.449219 1.5625 -3.625 1.777344 -3.734375 C 1.984375 -3.847656 2.242188 -3.902344 2.542969 -3.902344 C 2.59375 -3.902344 2.640625 -3.902344 2.691406 -3.894531 C 2.738281 -3.886719 2.800781 -3.882812 2.863281 -3.867188 Z M 2.863281 -3.226562 "/>
</symbol>
<symbol overflow="visible" id="glyph0-22">
<path style="stroke:none;" d="M 3.164062 -1.949219 C 3.164062 -2.402344 3.074219 -2.753906 2.886719 -3.003906 C 2.695312 -3.253906 2.4375 -3.378906 2.097656 -3.378906 C 1.761719 -3.378906 1.5 -3.253906 1.308594 -3.003906 C 1.121094 -2.753906 1.03125 -2.402344 1.03125 -1.949219 C 1.03125 -1.5 1.121094 -1.148438 1.308594 -0.898438 C 1.5 -0.648438 1.761719 -0.523438 2.097656 -0.523438 C 2.4375 -0.523438 2.695312 -0.648438 2.886719 -0.898438 C 3.074219 -1.148438 3.164062 -1.5 3.164062 -1.949219 Z M 3.789062 -0.472656 C 3.789062 0.175781 3.644531 0.660156 3.359375 0.976562 C 3.074219 1.289062 2.628906 1.449219 2.035156 1.449219 C 1.820312 1.449219 1.609375 1.433594 1.414062 1.402344 C 1.21875 1.367188 1.03125 1.316406 0.84375 1.246094 L 0.84375 0.640625 C 1.03125 0.738281 1.210938 0.816406 1.386719 0.863281 C 1.566406 0.914062 1.75 0.933594 1.9375 0.933594 C 2.347656 0.933594 2.65625 0.820312 2.855469 0.605469 C 3.058594 0.398438 3.164062 0.078125 3.164062 -0.363281 L 3.164062 -0.667969 C 3.03125 -0.445312 2.871094 -0.277344 2.667969 -0.167969 C 2.464844 -0.0546875 2.222656 0 1.945312 0 C 1.476562 0 1.101562 -0.179688 0.816406 -0.535156 C 0.53125 -0.890625 0.382812 -1.359375 0.382812 -1.949219 C 0.382812 -2.542969 0.53125 -3.011719 0.816406 -3.367188 C 1.101562 -3.722656 1.476562 -3.902344 1.945312 -3.902344 C 2.222656 -3.902344 2.464844 -3.847656 2.667969 -3.734375 C 2.871094 -3.625 3.03125 -3.457031 3.164062 -3.234375 L 3.164062 -3.8125 L 3.789062 -3.8125 Z M 3.789062 -0.472656 "/>
</symbol>
<symbol overflow="visible" id="glyph0-23">
<path style="stroke:none;" d="M 2.160156 -5.289062 C 1.859375 -4.765625 1.628906 -4.25 1.484375 -3.742188 C 1.335938 -3.234375 1.261719 -2.710938 1.261719 -2.1875 C 1.261719 -1.664062 1.335938 -1.144531 1.484375 -0.628906 C 1.628906 -0.117188 1.859375 0.398438 2.160156 0.917969 L 1.617188 0.917969 C 1.273438 0.382812 1.023438 -0.140625 0.851562 -0.65625 C 0.683594 -1.171875 0.597656 -1.679688 0.597656 -2.1875 C 0.597656 -2.695312 0.683594 -3.207031 0.851562 -3.714844 C 1.015625 -4.230469 1.273438 -4.753906 1.617188 -5.289062 Z M 2.160156 -5.289062 "/>
</symbol>
<symbol overflow="visible" id="glyph0-24">
<path style="stroke:none;" d="M 0.339844 -2.1875 L 2.175781 -2.1875 L 2.175781 -1.628906 L 0.339844 -1.628906 Z M 0.339844 -2.1875 "/>
</symbol>
<symbol overflow="visible" id="glyph0-25">
<path style="stroke:none;" d="M 0.558594 -5.289062 L 1.101562 -5.289062 C 1.441406 -4.753906 1.691406 -4.230469 1.867188 -3.714844 C 2.035156 -3.207031 2.117188 -2.695312 2.117188 -2.1875 C 2.117188 -1.679688 2.035156 -1.171875 1.867188 -0.65625 C 1.691406 -0.140625 1.441406 0.382812 1.101562 0.917969 L 0.558594 0.917969 C 0.855469 0.398438 1.085938 -0.117188 1.234375 -0.628906 C 1.378906 -1.144531 1.457031 -1.664062 1.457031 -2.1875 C 1.457031 -2.710938 1.378906 -3.234375 1.234375 -3.742188 C 1.085938 -4.25 0.855469 -4.765625 0.558594 -5.289062 Z M 0.558594 -5.289062 "/>
</symbol>
<symbol overflow="visible" id="glyph1-0">
<path style="stroke:none;" d="M 1.550781 -3.238281 C 1.300781 -3.238281 1.117188 -3.117188 0.988281 -2.871094 C 0.867188 -2.628906 0.804688 -2.261719 0.804688 -1.777344 C 0.804688 -1.289062 0.867188 -0.921875 0.988281 -0.679688 C 1.117188 -0.433594 1.300781 -0.3125 1.550781 -0.3125 C 1.800781 -0.3125 1.988281 -0.433594 2.113281 -0.679688 C 2.234375 -0.921875 2.296875 -1.289062 2.296875 -1.777344 C 2.296875 -2.261719 2.234375 -2.628906 2.113281 -2.871094 C 1.988281 -3.117188 1.800781 -3.238281 1.550781 -3.238281 Z M 1.550781 -3.621094 C 1.945312 -3.621094 2.253906 -3.464844 2.464844 -3.144531 C 2.671875 -2.828125 2.78125 -2.375 2.78125 -1.777344 C 2.78125 -1.175781 2.671875 -0.722656 2.464844 -0.40625 C 2.253906 -0.0859375 1.945312 0.0664062 1.550781 0.0664062 C 1.152344 0.0664062 0.84375 -0.0859375 0.632812 -0.40625 C 0.425781 -0.722656 0.320312 -1.175781 0.320312 -1.777344 C 0.320312 -2.375 0.425781 -2.828125 0.632812 -3.144531 C 0.84375 -3.464844 1.152344 -3.621094 1.550781 -3.621094 Z M 1.550781 -3.621094 "/>
</symbol>
<symbol overflow="visible" id="glyph1-1">
<path style="stroke:none;" d="M 0.605469 -0.40625 L 1.390625 -0.40625 L 1.390625 -3.117188 L 0.535156 -2.945312 L 0.535156 -3.386719 L 1.386719 -3.554688 L 1.867188 -3.554688 L 1.867188 -0.40625 L 2.652344 -0.40625 L 2.652344 0 L 0.605469 0 Z M 0.605469 -0.40625 "/>
</symbol>
<symbol overflow="visible" id="glyph1-2">
<path style="stroke:none;" d="M 0.9375 -0.40625 L 2.613281 -0.40625 L 2.613281 0 L 0.355469 0 L 0.355469 -0.40625 C 0.535156 -0.59375 0.785156 -0.847656 1.101562 -1.164062 C 1.417969 -1.484375 1.613281 -1.6875 1.699219 -1.78125 C 1.851562 -1.949219 1.960938 -2.097656 2.019531 -2.21875 C 2.082031 -2.339844 2.113281 -2.457031 2.113281 -2.574219 C 2.113281 -2.765625 2.042969 -2.917969 1.910156 -3.039062 C 1.78125 -3.15625 1.609375 -3.214844 1.394531 -3.214844 C 1.242188 -3.214844 1.085938 -3.191406 0.917969 -3.136719 C 0.75 -3.082031 0.570312 -3.003906 0.378906 -2.898438 L 0.378906 -3.386719 C 0.574219 -3.464844 0.757812 -3.523438 0.921875 -3.5625 C 1.09375 -3.601562 1.242188 -3.621094 1.386719 -3.621094 C 1.75 -3.621094 2.046875 -3.527344 2.269531 -3.347656 C 2.488281 -3.160156 2.59375 -2.910156 2.59375 -2.605469 C 2.59375 -2.457031 2.566406 -2.320312 2.511719 -2.191406 C 2.457031 -2.058594 2.359375 -1.90625 2.214844 -1.726562 C 2.175781 -1.683594 2.046875 -1.546875 1.835938 -1.328125 C 1.625 -1.105469 1.320312 -0.800781 0.9375 -0.40625 Z M 0.9375 -0.40625 "/>
</symbol>
<symbol overflow="visible" id="glyph1-3">
<path style="stroke:none;" d="M 1.980469 -1.917969 C 2.210938 -1.867188 2.390625 -1.765625 2.515625 -1.609375 C 2.648438 -1.453125 2.710938 -1.261719 2.710938 -1.035156 C 2.710938 -0.683594 2.589844 -0.410156 2.351562 -0.21875 C 2.113281 -0.0273438 1.765625 0.0664062 1.320312 0.0664062 C 1.171875 0.0664062 1.019531 0.0546875 0.859375 0.0234375 C 0.703125 -0.00390625 0.542969 -0.046875 0.371094 -0.105469 L 0.371094 -0.570312 C 0.503906 -0.492188 0.648438 -0.433594 0.808594 -0.394531 C 0.96875 -0.355469 1.136719 -0.335938 1.308594 -0.335938 C 1.609375 -0.335938 1.839844 -0.394531 1.996094 -0.511719 C 2.15625 -0.632812 2.234375 -0.804688 2.234375 -1.035156 C 2.234375 -1.242188 2.160156 -1.40625 2.015625 -1.523438 C 1.867188 -1.644531 1.664062 -1.703125 1.398438 -1.703125 L 0.984375 -1.703125 L 0.984375 -2.097656 L 1.417969 -2.097656 C 1.660156 -2.097656 1.839844 -2.144531 1.960938 -2.238281 C 2.085938 -2.332031 2.152344 -2.46875 2.152344 -2.648438 C 2.152344 -2.828125 2.085938 -2.96875 1.957031 -3.066406 C 1.824219 -3.164062 1.640625 -3.214844 1.398438 -3.214844 C 1.269531 -3.214844 1.125 -3.199219 0.976562 -3.171875 C 0.824219 -3.144531 0.660156 -3.101562 0.476562 -3.039062 L 0.476562 -3.46875 C 0.660156 -3.523438 0.828125 -3.554688 0.988281 -3.582031 C 1.152344 -3.605469 1.300781 -3.621094 1.445312 -3.621094 C 1.808594 -3.621094 2.097656 -3.535156 2.3125 -3.371094 C 2.523438 -3.203125 2.628906 -2.980469 2.628906 -2.699219 C 2.628906 -2.503906 2.570312 -2.335938 2.457031 -2.199219 C 2.347656 -2.0625 2.191406 -1.96875 1.980469 -1.917969 Z M 1.980469 -1.917969 "/>
</symbol>
<symbol overflow="visible" id="glyph1-4">
<path style="stroke:none;" d="M 1.84375 -3.136719 L 0.628906 -1.238281 L 1.84375 -1.238281 Z M 1.71875 -3.554688 L 2.320312 -3.554688 L 2.320312 -1.238281 L 2.828125 -1.238281 L 2.828125 -0.839844 L 2.320312 -0.839844 L 2.320312 0 L 1.84375 0 L 1.84375 -0.839844 L 0.238281 -0.839844 L 0.238281 -1.300781 Z M 1.71875 -3.554688 "/>
</symbol>
<symbol overflow="visible" id="glyph2-0">
<path style="stroke:none;" d="M 3.527344 -4.230469 L 3.527344 -3.550781 C 3.328125 -3.65625 3.113281 -3.726562 2.898438 -3.78125 C 2.683594 -3.839844 2.453125 -3.863281 2.222656 -3.863281 C 1.863281 -3.863281 1.601562 -3.804688 1.417969 -3.695312 C 1.242188 -3.589844 1.15625 -3.425781 1.15625 -3.210938 C 1.15625 -3.042969 1.21875 -2.914062 1.347656 -2.820312 C 1.472656 -2.722656 1.726562 -2.636719 2.109375 -2.546875 L 2.355469 -2.492188 C 2.867188 -2.382812 3.226562 -2.230469 3.441406 -2.03125 C 3.65625 -1.832031 3.757812 -1.5625 3.757812 -1.203125 C 3.757812 -0.796875 3.597656 -0.476562 3.28125 -0.238281 C 2.960938 -0.0078125 2.523438 0.113281 1.960938 0.113281 C 1.726562 0.113281 1.480469 0.0859375 1.226562 0.0390625 C 0.980469 0 0.707031 -0.0703125 0.429688 -0.160156 L 0.429688 -0.898438 C 0.691406 -0.765625 0.957031 -0.660156 1.210938 -0.589844 C 1.472656 -0.519531 1.726562 -0.484375 1.976562 -0.484375 C 2.316406 -0.484375 2.570312 -0.542969 2.753906 -0.660156 C 2.9375 -0.773438 3.027344 -0.933594 3.027344 -1.148438 C 3.027344 -1.347656 2.960938 -1.488281 2.828125 -1.59375 C 2.699219 -1.695312 2.414062 -1.800781 1.96875 -1.894531 L 1.71875 -1.949219 C 1.273438 -2.046875 0.957031 -2.191406 0.757812 -2.382812 C 0.558594 -2.570312 0.460938 -2.835938 0.460938 -3.175781 C 0.460938 -3.582031 0.605469 -3.902344 0.898438 -4.125 C 1.1875 -4.347656 1.601562 -4.460938 2.132812 -4.460938 C 2.398438 -4.460938 2.652344 -4.445312 2.882812 -4.402344 C 3.113281 -4.363281 3.328125 -4.300781 3.527344 -4.230469 Z M 3.527344 -4.230469 "/>
</symbol>
<symbol overflow="visible" id="glyph2-1">
<path style="stroke:none;" d="M 1.457031 -5.589844 L 1.457031 -4.355469 L 2.929688 -4.355469 L 2.929688 -3.796875 L 1.457031 -3.796875 L 1.457031 -1.433594 C 1.457031 -1.074219 1.503906 -0.851562 1.601562 -0.75 C 1.703125 -0.644531 1.902344 -0.597656 2.199219 -0.597656 L 2.929688 -0.597656 L 2.929688 0 L 2.199219 0 C 1.648438 0 1.265625 -0.105469 1.050781 -0.3125 C 0.84375 -0.519531 0.742188 -0.890625 0.742188 -1.433594 L 0.742188 -3.796875 L 0.214844 -3.796875 L 0.214844 -4.355469 L 0.742188 -4.355469 L 0.742188 -5.589844 Z M 1.457031 -5.589844 "/>
</symbol>
<symbol overflow="visible" id="glyph2-2">
<path style="stroke:none;" d="M 4.476562 -2.355469 L 4.476562 -2.007812 L 1.1875 -2.007812 C 1.21875 -1.511719 1.371094 -1.140625 1.632812 -0.875 C 1.894531 -0.621094 2.269531 -0.492188 2.738281 -0.492188 C 3.019531 -0.492188 3.28125 -0.527344 3.535156 -0.597656 C 3.796875 -0.660156 4.054688 -0.765625 4.308594 -0.898438 L 4.308594 -0.222656 C 4.054688 -0.113281 3.789062 -0.03125 3.519531 0.0234375 C 3.25 0.078125 2.976562 0.113281 2.699219 0.113281 C 2.007812 0.113281 1.449219 -0.0859375 1.042969 -0.492188 C 0.636719 -0.898438 0.4375 -1.441406 0.4375 -2.132812 C 0.4375 -2.84375 0.628906 -3.410156 1.011719 -3.832031 C 1.402344 -4.253906 1.917969 -4.460938 2.570312 -4.460938 C 3.160156 -4.460938 3.625 -4.269531 3.964844 -3.894531 C 4.308594 -3.519531 4.476562 -3.003906 4.476562 -2.355469 Z M 3.757812 -2.5625 C 3.75 -2.953125 3.648438 -3.273438 3.433594 -3.503906 C 3.21875 -3.734375 2.9375 -3.855469 2.582031 -3.855469 C 2.183594 -3.855469 1.863281 -3.742188 1.625 -3.511719 C 1.386719 -3.289062 1.25 -2.96875 1.210938 -2.5625 Z M 3.757812 -2.5625 "/>
</symbol>
<symbol overflow="visible" id="glyph2-3">
<path style="stroke:none;" d="M 1.441406 -0.652344 L 1.441406 1.65625 L 0.726562 1.65625 L 0.726562 -4.355469 L 1.441406 -4.355469 L 1.441406 -3.695312 C 1.59375 -3.957031 1.777344 -4.148438 2.007812 -4.269531 C 2.238281 -4.394531 2.515625 -4.460938 2.835938 -4.460938 C 3.367188 -4.460938 3.796875 -4.253906 4.125 -3.832031 C 4.453125 -3.410156 4.617188 -2.859375 4.617188 -2.175781 C 4.617188 -1.488281 4.453125 -0.941406 4.125 -0.519531 C 3.796875 -0.09375 3.367188 0.113281 2.835938 0.113281 C 2.515625 0.113281 2.238281 0.046875 2.007812 -0.0703125 C 1.777344 -0.199219 1.59375 -0.390625 1.441406 -0.652344 Z M 3.878906 -2.175781 C 3.878906 -2.699219 3.765625 -3.113281 3.550781 -3.410156 C 3.335938 -3.710938 3.035156 -3.863281 2.660156 -3.863281 C 2.285156 -3.863281 1.984375 -3.710938 1.769531 -3.410156 C 1.554688 -3.113281 1.441406 -2.699219 1.441406 -2.175781 C 1.441406 -1.648438 1.554688 -1.234375 1.769531 -0.933594 C 1.984375 -0.636719 2.285156 -0.484375 2.660156 -0.484375 C 3.035156 -0.484375 3.335938 -0.636719 3.550781 -0.933594 C 3.765625 -1.234375 3.878906 -1.648438 3.878906 -2.175781 Z M 3.878906 -2.175781 "/>
</symbol>
<symbol overflow="visible" id="glyph3-0">
<path style="stroke:none;" d="M -4.1875 -3.886719 L -3.519531 -3.886719 C -3.632812 -3.6875 -3.710938 -3.480469 -3.765625 -3.273438 C -3.824219 -3.074219 -3.855469 -2.867188 -3.855469 -2.660156 C -3.855469 -2.199219 -3.703125 -1.839844 -3.410156 -1.578125 C -3.113281 -1.320312 -2.707031 -1.195312 -2.175781 -1.195312 C -1.640625 -1.195312 -1.226562 -1.320312 -0.933594 -1.578125 C -0.636719 -1.839844 -0.492188 -2.199219 -0.492188 -2.660156 C -0.492188 -2.867188 -0.519531 -3.074219 -0.574219 -3.273438 C -0.628906 -3.480469 -0.714844 -3.6875 -0.828125 -3.886719 L -0.167969 -3.886719 C -0.0703125 -3.6875 0 -3.480469 0.0390625 -3.265625 C 0.0859375 -3.050781 0.113281 -2.828125 0.113281 -2.582031 C 0.113281 -1.925781 -0.09375 -1.410156 -0.5 -1.019531 C -0.914062 -0.628906 -1.472656 -0.4375 -2.175781 -0.4375 C -2.882812 -0.4375 -3.441406 -0.628906 -3.847656 -1.019531 C -4.253906 -1.410156 -4.460938 -1.949219 -4.460938 -2.628906 C -4.460938 -2.851562 -4.4375 -3.066406 -4.386719 -3.273438 C -4.347656 -3.488281 -4.277344 -3.6875 -4.1875 -3.886719 Z M -4.1875 -3.886719 "/>
</symbol>
<symbol overflow="visible" id="glyph3-1">
<path style="stroke:none;" d="M -3.6875 -3.273438 C -3.734375 -3.195312 -3.765625 -3.105469 -3.789062 -3.011719 C -3.816406 -2.914062 -3.824219 -2.8125 -3.824219 -2.699219 C -3.824219 -2.292969 -3.6875 -1.984375 -3.425781 -1.769531 C -3.160156 -1.554688 -2.789062 -1.441406 -2.292969 -1.441406 L 0 -1.441406 L 0 -0.726562 L -4.355469 -0.726562 L -4.355469 -1.441406 L -3.679688 -1.441406 C -3.941406 -1.59375 -4.140625 -1.785156 -4.269531 -2.03125 C -4.394531 -2.269531 -4.460938 -2.5625 -4.460938 -2.90625 C -4.460938 -2.960938 -4.460938 -3.019531 -4.453125 -3.074219 C -4.445312 -3.128906 -4.4375 -3.203125 -4.417969 -3.273438 Z M -3.6875 -3.273438 "/>
</symbol>
<symbol overflow="visible" id="glyph3-2">
<path style="stroke:none;" d="M -3.855469 -2.4375 C -3.855469 -2.054688 -3.703125 -1.753906 -3.402344 -1.527344 C -3.105469 -1.304688 -2.691406 -1.195312 -2.175781 -1.195312 C -1.65625 -1.195312 -1.242188 -1.304688 -0.941406 -1.519531 C -0.644531 -1.742188 -0.492188 -2.046875 -0.492188 -2.4375 C -0.492188 -2.820312 -0.644531 -3.121094 -0.949219 -3.34375 C -1.242188 -3.566406 -1.65625 -3.679688 -2.175781 -3.679688 C -2.691406 -3.679688 -3.097656 -3.566406 -3.402344 -3.34375 C -3.703125 -3.121094 -3.855469 -2.820312 -3.855469 -2.4375 Z M -4.460938 -2.4375 C -4.460938 -3.058594 -4.261719 -3.542969 -3.855469 -3.902344 C -3.449219 -4.261719 -2.890625 -4.4375 -2.175781 -4.4375 C -1.464844 -4.4375 -0.898438 -4.261719 -0.492188 -3.902344 C -0.0859375 -3.542969 0.113281 -3.058594 0.113281 -2.4375 C 0.113281 -1.808594 -0.0859375 -1.320312 -0.492188 -0.972656 C -0.898438 -0.613281 -1.464844 -0.4375 -2.175781 -0.4375 C -2.890625 -0.4375 -3.449219 -0.613281 -3.855469 -0.972656 C -4.261719 -1.320312 -4.460938 -1.808594 -4.460938 -2.4375 Z M -4.460938 -2.4375 "/>
</symbol>
<symbol overflow="visible" id="glyph3-3">
<path style="stroke:none;" d="M -4.230469 -3.527344 L -3.550781 -3.527344 C -3.65625 -3.328125 -3.726562 -3.113281 -3.78125 -2.898438 C -3.839844 -2.683594 -3.863281 -2.453125 -3.863281 -2.222656 C -3.863281 -1.863281 -3.804688 -1.601562 -3.695312 -1.417969 C -3.589844 -1.242188 -3.425781 -1.15625 -3.210938 -1.15625 C -3.042969 -1.15625 -2.914062 -1.21875 -2.820312 -1.347656 C -2.722656 -1.472656 -2.636719 -1.726562 -2.546875 -2.109375 L -2.492188 -2.355469 C -2.382812 -2.867188 -2.230469 -3.226562 -2.03125 -3.441406 C -1.832031 -3.65625 -1.5625 -3.757812 -1.203125 -3.757812 C -0.796875 -3.757812 -0.476562 -3.597656 -0.238281 -3.28125 C -0.0078125 -2.960938 0.113281 -2.523438 0.113281 -1.960938 C 0.113281 -1.726562 0.0859375 -1.480469 0.0390625 -1.226562 C 0 -0.980469 -0.0703125 -0.707031 -0.160156 -0.429688 L -0.898438 -0.429688 C -0.765625 -0.691406 -0.660156 -0.957031 -0.589844 -1.210938 C -0.519531 -1.472656 -0.484375 -1.726562 -0.484375 -1.976562 C -0.484375 -2.316406 -0.542969 -2.570312 -0.660156 -2.753906 C -0.773438 -2.9375 -0.933594 -3.027344 -1.148438 -3.027344 C -1.347656 -3.027344 -1.488281 -2.960938 -1.59375 -2.828125 C -1.695312 -2.699219 -1.800781 -2.414062 -1.894531 -1.96875 L -1.949219 -1.71875 C -2.046875 -1.273438 -2.191406 -0.957031 -2.382812 -0.757812 C -2.570312 -0.558594 -2.835938 -0.460938 -3.175781 -0.460938 C -3.582031 -0.460938 -3.902344 -0.605469 -4.125 -0.898438 C -4.347656 -1.1875 -4.460938 -1.601562 -4.460938 -2.132812 C -4.460938 -2.398438 -4.445312 -2.652344 -4.402344 -2.882812 C -4.363281 -3.113281 -4.300781 -3.328125 -4.230469 -3.527344 Z M -4.230469 -3.527344 "/>
</symbol>
<symbol overflow="visible" id="glyph3-4">
<path style="stroke:none;" d="M -2.5 -0.390625 L -2.5 -2.484375 L -1.863281 -2.484375 L -1.863281 -0.390625 Z M -2.5 -0.390625 "/>
</symbol>
<symbol overflow="visible" id="glyph3-5">
<path style="stroke:none;" d="M -2.355469 -4.476562 L -2.007812 -4.476562 L -2.007812 -1.1875 C -1.511719 -1.21875 -1.140625 -1.371094 -0.875 -1.632812 C -0.621094 -1.894531 -0.492188 -2.269531 -0.492188 -2.738281 C -0.492188 -3.019531 -0.527344 -3.28125 -0.597656 -3.535156 C -0.660156 -3.796875 -0.765625 -4.054688 -0.898438 -4.308594 L -0.222656 -4.308594 C -0.113281 -4.054688 -0.03125 -3.789062 0.0234375 -3.519531 C 0.078125 -3.25 0.113281 -2.976562 0.113281 -2.699219 C 0.113281 -2.007812 -0.0859375 -1.449219 -0.492188 -1.042969 C -0.898438 -0.636719 -1.441406 -0.4375 -2.132812 -0.4375 C -2.84375 -0.4375 -3.410156 -0.628906 -3.832031 -1.011719 C -4.253906 -1.402344 -4.460938 -1.917969 -4.460938 -2.570312 C -4.460938 -3.160156 -4.269531 -3.625 -3.894531 -3.964844 C -3.519531 -4.308594 -3.003906 -4.476562 -2.355469 -4.476562 Z M -2.5625 -3.757812 C -2.953125 -3.75 -3.273438 -3.648438 -3.503906 -3.433594 C -3.734375 -3.21875 -3.855469 -2.9375 -3.855469 -2.582031 C -3.855469 -2.183594 -3.742188 -1.863281 -3.511719 -1.625 C -3.289062 -1.386719 -2.96875 -1.25 -2.5625 -1.210938 Z M -2.5625 -3.757812 "/>
</symbol>
<symbol overflow="visible" id="glyph3-6">
<path style="stroke:none;" d="M -2.628906 -4.371094 L 0 -4.371094 L 0 -3.65625 L -2.605469 -3.65625 C -3.019531 -3.65625 -3.328125 -3.574219 -3.527344 -3.417969 C -3.734375 -3.25 -3.839844 -3.011719 -3.839844 -2.691406 C -3.839844 -2.300781 -3.71875 -2 -3.472656 -1.777344 C -3.226562 -1.554688 -2.882812 -1.441406 -2.460938 -1.441406 L 0 -1.441406 L 0 -0.726562 L -4.355469 -0.726562 L -4.355469 -1.441406 L -3.679688 -1.441406 C -3.941406 -1.609375 -4.132812 -1.816406 -4.269531 -2.046875 C -4.394531 -2.277344 -4.460938 -2.546875 -4.460938 -2.851562 C -4.460938 -3.351562 -4.300781 -3.726562 -3.988281 -3.980469 C -3.679688 -4.246094 -3.226562 -4.371094 -2.628906 -4.371094 Z M -2.628906 -4.371094 "/>
</symbol>
<symbol overflow="visible" id="glyph3-7">
<path style="stroke:none;" d="M -5.589844 -1.457031 L -4.355469 -1.457031 L -4.355469 -2.929688 L -3.796875 -2.929688 L -3.796875 -1.457031 L -1.433594 -1.457031 C -1.074219 -1.457031 -0.851562 -1.503906 -0.75 -1.601562 C -0.644531 -1.703125 -0.597656 -1.902344 -0.597656 -2.199219 L -0.597656 -2.929688 L 0 -2.929688 L 0 -2.199219 C 0 -1.648438 -0.105469 -1.265625 -0.3125 -1.050781 C -0.519531 -0.84375 -0.890625 -0.742188 -1.433594 -0.742188 L -3.796875 -0.742188 L -3.796875 -0.214844 L -4.355469 -0.214844 L -4.355469 -0.742188 L -5.589844 -0.742188 Z M -5.589844 -1.457031 "/>
</symbol>
<symbol overflow="visible" id="glyph3-8">
<path style="stroke:none;" d="M -0.652344 -1.441406 L 1.65625 -1.441406 L 1.65625 -0.726562 L -4.355469 -0.726562 L -4.355469 -1.441406 L -3.695312 -1.441406 C -3.957031 -1.59375 -4.148438 -1.777344 -4.269531 -2.007812 C -4.394531 -2.238281 -4.460938 -2.515625 -4.460938 -2.835938 C -4.460938 -3.367188 -4.253906 -3.796875 -3.832031 -4.125 C -3.410156 -4.453125 -2.859375 -4.617188 -2.175781 -4.617188 C -1.488281 -4.617188 -0.941406 -4.453125 -0.519531 -4.125 C -0.09375 -3.796875 0.113281 -3.367188 0.113281 -2.835938 C 0.113281 -2.515625 0.046875 -2.238281 -0.0703125 -2.007812 C -0.199219 -1.777344 -0.390625 -1.59375 -0.652344 -1.441406 Z M -2.175781 -3.878906 C -2.699219 -3.878906 -3.113281 -3.765625 -3.410156 -3.550781 C -3.710938 -3.335938 -3.863281 -3.035156 -3.863281 -2.660156 C -3.863281 -2.285156 -3.710938 -1.984375 -3.410156 -1.769531 C -3.113281 -1.554688 -2.699219 -1.441406 -2.175781 -1.441406 C -1.648438 -1.441406 -1.234375 -1.554688 -0.933594 -1.769531 C -0.636719 -1.984375 -0.484375 -2.285156 -0.484375 -2.660156 C -0.484375 -3.035156 -0.636719 -3.335938 -0.933594 -3.550781 C -1.234375 -3.765625 -1.648438 -3.878906 -2.175781 -3.878906 Z M -2.175781 -3.878906 "/>
</symbol>
<symbol overflow="visible" id="glyph3-9">
<path style="stroke:none;" d="M 0.40625 -2.5625 C 0.921875 -2.363281 1.257812 -2.167969 1.417969 -1.976562 C 1.578125 -1.777344 1.65625 -1.519531 1.65625 -1.203125 L 1.65625 -0.628906 L 1.058594 -0.628906 L 1.058594 -1.050781 C 1.058594 -1.25 1.011719 -1.402344 0.914062 -1.503906 C 0.828125 -1.617188 0.605469 -1.734375 0.253906 -1.871094 L -0.0703125 -2 L -4.355469 -0.238281 L -4.355469 -0.996094 L -0.949219 -2.355469 L -4.355469 -3.71875 L -4.355469 -4.476562 Z M 0.40625 -2.5625 "/>
</symbol>
<symbol overflow="visible" id="glyph3-10">
<path style="stroke:none;" d=""/>
</symbol>
<symbol overflow="visible" id="glyph3-11">
<path style="stroke:none;" d="M -6.050781 -0.75 L -6.050781 -1.464844 L 0 -1.464844 L 0 -0.75 Z M -6.050781 -0.75 "/>
</symbol>
</g>
<clipPath id="clip1">
  <path d="M 0.574219 0 L 294.03125 0 L 294.03125 152.597656 L 0.574219 152.597656 Z M 0.574219 0 "/>
</clipPath>
<clipPath id="clip2">
  <path d="M 33.546875 121 L 291.046875 121 L 291.046875 122.054688 L 33.546875 122.054688 Z M 33.546875 121 "/>
</clipPath>
<clipPath id="clip3">
  <path d="M 33.546875 103 L 291.046875 103 L 291.046875 104 L 33.546875 104 Z M 33.546875 103 "/>
</clipPath>
<clipPath id="clip4">
  <path d="M 33.546875 84 L 291.046875 84 L 291.046875 86 L 33.546875 86 Z M 33.546875 84 "/>
</clipPath>
<clipPath id="clip5">
  <path d="M 33.546875 65 L 291.046875 65 L 291.046875 67 L 33.546875 67 Z M 33.546875 65 "/>
</clipPath>
<clipPath id="clip6">
  <path d="M 33.546875 47 L 291.046875 47 L 291.046875 48 L 33.546875 48 Z M 33.546875 47 "/>
</clipPath>
<clipPath id="clip7">
  <path d="M 33.546875 28 L 291.046875 28 L 291.046875 30 L 33.546875 30 Z M 33.546875 28 "/>
</clipPath>
<clipPath id="clip8">
  <path d="M 44 80 L 281 80 L 281 122.054688 L 44 122.054688 Z M 44 80 "/>
</clipPath>
</defs>
<g id="surface1">
<g clip-path="url(#clip1)" clip-rule="nonzero">
<path style=" stroke:none;fill-rule:nonzero;fill:rgb(100%,100%,100%);fill-opacity:1;" d="M 0.574219 152.597656 L 294.03125 152.597656 L 294.03125 0 L 0.574219 0 Z M 0.574219 152.597656 "/>
</g>
<path style=" stroke:none;fill-rule:nonzero;fill:rgb(100%,100%,100%);fill-opacity:1;" d="M 33.546875 122.054688 L 291.046875 122.054688 L 291.046875 17.613281 L 33.546875 17.613281 Z M 33.546875 122.054688 "/>
<path style="fill:none;stroke-width:0.6;stroke-linecap:butt;stroke-linejoin:round;stroke:rgb(33.332825%,33.332825%,33.332825%);stroke-opacity:1;stroke-miterlimit:10;" d="M 44.884323 30.683734 L 44.884323 27.183394 " transform="matrix(0.995439,0,0,-0.995439,0.574292,152.598479)"/>
<g style="fill:rgb(33.332825%,33.332825%,33.332825%);fill-opacity:1;">
  <use xlink:href="#glyph0-0" x="38.782549" y="135.527997"/>
</g>
<g style="fill:rgb(33.332825%,33.332825%,33.332825%);fill-opacity:1;">
  <use xlink:href="#glyph0-1" x="43.215851" y="135.527997"/>
</g>
<g style="fill:rgb(33.332825%,33.332825%,33.332825%);fill-opacity:1;">
  <use xlink:href="#glyph1-0" x="47.715839" y="132.650183"/>
</g>
<path style="fill:none;stroke-width:0.6;stroke-linecap:butt;stroke-linejoin:round;stroke:rgb(33.332825%,33.332825%,33.332825%);stroke-opacity:1;stroke-miterlimit:10;" d="M 99.559466 30.683734 L 99.559466 27.183394 " transform="matrix(0.995439,0,0,-0.995439,0.574292,152.598479)"/>
<g style="fill:rgb(33.332825%,33.332825%,33.332825%);fill-opacity:1;">
  <use xlink:href="#glyph0-0" x="93.208814" y="135.462672"/>
</g>
<g style="fill:rgb(33.332825%,33.332825%,33.332825%);fill-opacity:1;">
  <use xlink:href="#glyph0-1" x="97.642115" y="135.462672"/>
</g>
<g style="fill:rgb(33.332825%,33.332825%,33.332825%);fill-opacity:1;">
  <use xlink:href="#glyph1-1" x="102.142103" y="132.584857"/>
</g>
<path style="fill:none;stroke-width:0.6;stroke-linecap:butt;stroke-linejoin:round;stroke:rgb(33.332825%,33.332825%,33.332825%);stroke-opacity:1;stroke-miterlimit:10;" d="M 154.234609 30.683734 L 154.234609 27.183394 " transform="matrix(0.995439,0,0,-0.995439,0.574292,152.598479)"/>
<g style="fill:rgb(33.332825%,33.332825%,33.332825%);fill-opacity:1;">
  <use xlink:href="#glyph0-0" x="147.635078" y="135.527997"/>
</g>
<g style="fill:rgb(33.332825%,33.332825%,33.332825%);fill-opacity:1;">
  <use xlink:href="#glyph0-1" x="152.068379" y="135.527997"/>
</g>
<g style="fill:rgb(33.332825%,33.332825%,33.332825%);fill-opacity:1;">
  <use xlink:href="#glyph1-2" x="156.568367" y="132.650183"/>
</g>
<path style="fill:none;stroke-width:0.6;stroke-linecap:butt;stroke-linejoin:round;stroke:rgb(33.332825%,33.332825%,33.332825%);stroke-opacity:1;stroke-miterlimit:10;" d="M 208.909752 30.683734 L 208.909752 27.183394 " transform="matrix(0.995439,0,0,-0.995439,0.574292,152.598479)"/>
<g style="fill:rgb(33.332825%,33.332825%,33.332825%);fill-opacity:1;">
  <use xlink:href="#glyph0-0" x="202.061342" y="135.527997"/>
</g>
<g style="fill:rgb(33.332825%,33.332825%,33.332825%);fill-opacity:1;">
  <use xlink:href="#glyph0-1" x="206.494643" y="135.527997"/>
</g>
<g style="fill:rgb(33.332825%,33.332825%,33.332825%);fill-opacity:1;">
  <use xlink:href="#glyph1-3" x="210.994631" y="132.650183"/>
</g>
<path style="fill:none;stroke-width:0.6;stroke-linecap:butt;stroke-linejoin:round;stroke:rgb(33.332825%,33.332825%,33.332825%);stroke-opacity:1;stroke-miterlimit:10;" d="M 263.584896 30.683734 L 263.584896 27.183394 " transform="matrix(0.995439,0,0,-0.995439,0.574292,152.598479)"/>
<g style="fill:rgb(33.332825%,33.332825%,33.332825%);fill-opacity:1;">
  <use xlink:href="#glyph0-0" x="256.487606" y="135.462672"/>
</g>
<g style="fill:rgb(33.332825%,33.332825%,33.332825%);fill-opacity:1;">
  <use xlink:href="#glyph0-1" x="260.920907" y="135.462672"/>
</g>
<g style="fill:rgb(33.332825%,33.332825%,33.332825%);fill-opacity:1;">
  <use xlink:href="#glyph1-4" x="265.420895" y="132.584857"/>
</g>
<path style="fill:none;stroke-width:0.6;stroke-linecap:butt;stroke-linejoin:round;stroke:rgb(33.332825%,33.332825%,33.332825%);stroke-opacity:1;stroke-miterlimit:10;" d="M 36.412089 30.683734 L 36.412089 28.682419 " transform="matrix(0.995439,0,0,-0.995439,0.574292,152.598479)"/>
<path style="fill:none;stroke-width:0.6;stroke-linecap:butt;stroke-linejoin:round;stroke:rgb(33.332825%,33.332825%,33.332825%);stroke-opacity:1;stroke-miterlimit:10;" d="M 39.5828 30.683734 L 39.5828 28.682419 " transform="matrix(0.995439,0,0,-0.995439,0.574292,152.598479)"/>
<path style="fill:none;stroke-width:0.6;stroke-linecap:butt;stroke-linejoin:round;stroke:rgb(33.332825%,33.332825%,33.332825%);stroke-opacity:1;stroke-miterlimit:10;" d="M 42.380717 30.683734 L 42.380717 28.682419 " transform="matrix(0.995439,0,0,-0.995439,0.574292,152.598479)"/>
<path style="fill:none;stroke-width:0.6;stroke-linecap:butt;stroke-linejoin:round;stroke:rgb(33.332825%,33.332825%,33.332825%);stroke-opacity:1;stroke-miterlimit:10;" d="M 61.342196 30.683734 L 61.342196 28.682419 " transform="matrix(0.995439,0,0,-0.995439,0.574292,152.598479)"/>
<path style="fill:none;stroke-width:0.6;stroke-linecap:butt;stroke-linejoin:round;stroke:rgb(33.332825%,33.332825%,33.332825%);stroke-opacity:1;stroke-miterlimit:10;" d="M 70.972053 30.683734 L 70.972053 28.682419 " transform="matrix(0.995439,0,0,-0.995439,0.574292,152.598479)"/>
<path style="fill:none;stroke-width:0.6;stroke-linecap:butt;stroke-linejoin:round;stroke:rgb(33.332825%,33.332825%,33.332825%);stroke-opacity:1;stroke-miterlimit:10;" d="M 77.800069 30.683734 L 77.800069 28.682419 " transform="matrix(0.995439,0,0,-0.995439,0.574292,152.598479)"/>
<path style="fill:none;stroke-width:0.6;stroke-linecap:butt;stroke-linejoin:round;stroke:rgb(33.332825%,33.332825%,33.332825%);stroke-opacity:1;stroke-miterlimit:10;" d="M 83.101592 30.683734 L 83.101592 28.682419 " transform="matrix(0.995439,0,0,-0.995439,0.574292,152.598479)"/>
<path style="fill:none;stroke-width:0.6;stroke-linecap:butt;stroke-linejoin:round;stroke:rgb(33.332825%,33.332825%,33.332825%);stroke-opacity:1;stroke-miterlimit:10;" d="M 87.429927 30.683734 L 87.429927 28.682419 " transform="matrix(0.995439,0,0,-0.995439,0.574292,152.598479)"/>
<path style="fill:none;stroke-width:0.6;stroke-linecap:butt;stroke-linejoin:round;stroke:rgb(33.332825%,33.332825%,33.332825%);stroke-opacity:1;stroke-miterlimit:10;" d="M 91.091156 30.683734 L 91.091156 28.682419 " transform="matrix(0.995439,0,0,-0.995439,0.574292,152.598479)"/>
<path style="fill:none;stroke-width:0.6;stroke-linecap:butt;stroke-linejoin:round;stroke:rgb(33.332825%,33.332825%,33.332825%);stroke-opacity:1;stroke-miterlimit:10;" d="M 94.261867 30.683734 L 94.261867 28.682419 " transform="matrix(0.995439,0,0,-0.995439,0.574292,152.598479)"/>
<path style="fill:none;stroke-width:0.6;stroke-linecap:butt;stroke-linejoin:round;stroke:rgb(33.332825%,33.332825%,33.332825%);stroke-opacity:1;stroke-miterlimit:10;" d="M 97.05586 30.683734 L 97.05586 28.682419 " transform="matrix(0.995439,0,0,-0.995439,0.574292,152.598479)"/>
<path style="fill:none;stroke-width:0.6;stroke-linecap:butt;stroke-linejoin:round;stroke:rgb(33.332825%,33.332825%,33.332825%);stroke-opacity:1;stroke-miterlimit:10;" d="M 116.017339 30.683734 L 116.017339 28.682419 " transform="matrix(0.995439,0,0,-0.995439,0.574292,152.598479)"/>
<path style="fill:none;stroke-width:0.6;stroke-linecap:butt;stroke-linejoin:round;stroke:rgb(33.332825%,33.332825%,33.332825%);stroke-opacity:1;stroke-miterlimit:10;" d="M 125.647197 30.683734 L 125.647197 28.682419 " transform="matrix(0.995439,0,0,-0.995439,0.574292,152.598479)"/>
<path style="fill:none;stroke-width:0.6;stroke-linecap:butt;stroke-linejoin:round;stroke:rgb(33.332825%,33.332825%,33.332825%);stroke-opacity:1;stroke-miterlimit:10;" d="M 132.475213 30.683734 L 132.475213 28.682419 " transform="matrix(0.995439,0,0,-0.995439,0.574292,152.598479)"/>
<path style="fill:none;stroke-width:0.6;stroke-linecap:butt;stroke-linejoin:round;stroke:rgb(33.332825%,33.332825%,33.332825%);stroke-opacity:1;stroke-miterlimit:10;" d="M 137.776736 30.683734 L 137.776736 28.682419 " transform="matrix(0.995439,0,0,-0.995439,0.574292,152.598479)"/>
<path style="fill:none;stroke-width:0.6;stroke-linecap:butt;stroke-linejoin:round;stroke:rgb(33.332825%,33.332825%,33.332825%);stroke-opacity:1;stroke-miterlimit:10;" d="M 142.10507 30.683734 L 142.10507 28.682419 " transform="matrix(0.995439,0,0,-0.995439,0.574292,152.598479)"/>
<path style="fill:none;stroke-width:0.6;stroke-linecap:butt;stroke-linejoin:round;stroke:rgb(33.332825%,33.332825%,33.332825%);stroke-opacity:1;stroke-miterlimit:10;" d="M 145.766299 30.683734 L 145.766299 28.682419 " transform="matrix(0.995439,0,0,-0.995439,0.574292,152.598479)"/>
<path style="fill:none;stroke-width:0.6;stroke-linecap:butt;stroke-linejoin:round;stroke:rgb(33.332825%,33.332825%,33.332825%);stroke-opacity:1;stroke-miterlimit:10;" d="M 148.93701 30.683734 L 148.93701 28.682419 " transform="matrix(0.995439,0,0,-0.995439,0.574292,152.598479)"/>
<path style="fill:none;stroke-width:0.6;stroke-linecap:butt;stroke-linejoin:round;stroke:rgb(33.332825%,33.332825%,33.332825%);stroke-opacity:1;stroke-miterlimit:10;" d="M 151.731003 30.683734 L 151.731003 28.682419 " transform="matrix(0.995439,0,0,-0.995439,0.574292,152.598479)"/>
<path style="fill:none;stroke-width:0.6;stroke-linecap:butt;stroke-linejoin:round;stroke:rgb(33.332825%,33.332825%,33.332825%);stroke-opacity:1;stroke-miterlimit:10;" d="M 170.692483 30.683734 L 170.692483 28.682419 " transform="matrix(0.995439,0,0,-0.995439,0.574292,152.598479)"/>
<path style="fill:none;stroke-width:0.6;stroke-linecap:butt;stroke-linejoin:round;stroke:rgb(33.332825%,33.332825%,33.332825%);stroke-opacity:1;stroke-miterlimit:10;" d="M 180.32234 30.683734 L 180.32234 28.682419 " transform="matrix(0.995439,0,0,-0.995439,0.574292,152.598479)"/>
<path style="fill:none;stroke-width:0.6;stroke-linecap:butt;stroke-linejoin:round;stroke:rgb(33.332825%,33.332825%,33.332825%);stroke-opacity:1;stroke-miterlimit:10;" d="M 187.15428 30.683734 L 187.15428 28.682419 " transform="matrix(0.995439,0,0,-0.995439,0.574292,152.598479)"/>
<path style="fill:none;stroke-width:0.6;stroke-linecap:butt;stroke-linejoin:round;stroke:rgb(33.332825%,33.332825%,33.332825%);stroke-opacity:1;stroke-miterlimit:10;" d="M 192.451879 30.683734 L 192.451879 28.682419 " transform="matrix(0.995439,0,0,-0.995439,0.574292,152.598479)"/>
<path style="fill:none;stroke-width:0.6;stroke-linecap:butt;stroke-linejoin:round;stroke:rgb(33.332825%,33.332825%,33.332825%);stroke-opacity:1;stroke-miterlimit:10;" d="M 196.780213 30.683734 L 196.780213 28.682419 " transform="matrix(0.995439,0,0,-0.995439,0.574292,152.598479)"/>
<path style="fill:none;stroke-width:0.6;stroke-linecap:butt;stroke-linejoin:round;stroke:rgb(33.332825%,33.332825%,33.332825%);stroke-opacity:1;stroke-miterlimit:10;" d="M 200.441443 30.683734 L 200.441443 28.682419 " transform="matrix(0.995439,0,0,-0.995439,0.574292,152.598479)"/>
<path style="fill:none;stroke-width:0.6;stroke-linecap:butt;stroke-linejoin:round;stroke:rgb(33.332825%,33.332825%,33.332825%);stroke-opacity:1;stroke-miterlimit:10;" d="M 203.612154 30.683734 L 203.612154 28.682419 " transform="matrix(0.995439,0,0,-0.995439,0.574292,152.598479)"/>
<path style="fill:none;stroke-width:0.6;stroke-linecap:butt;stroke-linejoin:round;stroke:rgb(33.332825%,33.332825%,33.332825%);stroke-opacity:1;stroke-miterlimit:10;" d="M 206.410071 30.683734 L 206.410071 28.682419 " transform="matrix(0.995439,0,0,-0.995439,0.574292,152.598479)"/>
<path style="fill:none;stroke-width:0.6;stroke-linecap:butt;stroke-linejoin:round;stroke:rgb(33.332825%,33.332825%,33.332825%);stroke-opacity:1;stroke-miterlimit:10;" d="M 225.367626 30.683734 L 225.367626 28.682419 " transform="matrix(0.995439,0,0,-0.995439,0.574292,152.598479)"/>
<path style="fill:none;stroke-width:0.6;stroke-linecap:butt;stroke-linejoin:round;stroke:rgb(33.332825%,33.332825%,33.332825%);stroke-opacity:1;stroke-miterlimit:10;" d="M 234.997483 30.683734 L 234.997483 28.682419 " transform="matrix(0.995439,0,0,-0.995439,0.574292,152.598479)"/>
<path style="fill:none;stroke-width:0.6;stroke-linecap:butt;stroke-linejoin:round;stroke:rgb(33.332825%,33.332825%,33.332825%);stroke-opacity:1;stroke-miterlimit:10;" d="M 241.829423 30.683734 L 241.829423 28.682419 " transform="matrix(0.995439,0,0,-0.995439,0.574292,152.598479)"/>
<path style="fill:none;stroke-width:0.6;stroke-linecap:butt;stroke-linejoin:round;stroke:rgb(33.332825%,33.332825%,33.332825%);stroke-opacity:1;stroke-miterlimit:10;" d="M 247.127022 30.683734 L 247.127022 28.682419 " transform="matrix(0.995439,0,0,-0.995439,0.574292,152.598479)"/>
<path style="fill:none;stroke-width:0.6;stroke-linecap:butt;stroke-linejoin:round;stroke:rgb(33.332825%,33.332825%,33.332825%);stroke-opacity:1;stroke-miterlimit:10;" d="M 251.455357 30.683734 L 251.455357 28.682419 " transform="matrix(0.995439,0,0,-0.995439,0.574292,152.598479)"/>
<path style="fill:none;stroke-width:0.6;stroke-linecap:butt;stroke-linejoin:round;stroke:rgb(33.332825%,33.332825%,33.332825%);stroke-opacity:1;stroke-miterlimit:10;" d="M 255.116586 30.683734 L 255.116586 28.682419 " transform="matrix(0.995439,0,0,-0.995439,0.574292,152.598479)"/>
<path style="fill:none;stroke-width:0.6;stroke-linecap:butt;stroke-linejoin:round;stroke:rgb(33.332825%,33.332825%,33.332825%);stroke-opacity:1;stroke-miterlimit:10;" d="M 258.287297 30.683734 L 258.287297 28.682419 " transform="matrix(0.995439,0,0,-0.995439,0.574292,152.598479)"/>
<path style="fill:none;stroke-width:0.6;stroke-linecap:butt;stroke-linejoin:round;stroke:rgb(33.332825%,33.332825%,33.332825%);stroke-opacity:1;stroke-miterlimit:10;" d="M 261.085214 30.683734 L 261.085214 28.682419 " transform="matrix(0.995439,0,0,-0.995439,0.574292,152.598479)"/>
<path style="fill:none;stroke-width:0.6;stroke-linecap:butt;stroke-linejoin:round;stroke:rgb(33.332825%,33.332825%,33.332825%);stroke-opacity:1;stroke-miterlimit:10;" d="M 280.046693 30.683734 L 280.046693 28.682419 " transform="matrix(0.995439,0,0,-0.995439,0.574292,152.598479)"/>
<path style="fill:none;stroke-width:0.6;stroke-linecap:butt;stroke-linejoin:round;stroke:rgb(33.332825%,33.332825%,33.332825%);stroke-opacity:1;stroke-miterlimit:10;" d="M 289.672626 30.683734 L 289.672626 28.682419 " transform="matrix(0.995439,0,0,-0.995439,0.574292,152.598479)"/>
<g style="fill:rgb(10.195923%,10.195923%,10.195923%);fill-opacity:1;">
  <use xlink:href="#glyph2-0" x="153.680631" y="147.698813"/>
</g>
<g style="fill:rgb(10.195923%,10.195923%,10.195923%);fill-opacity:1;">
  <use xlink:href="#glyph2-1" x="157.83351" y="147.698813"/>
</g>
<g style="fill:rgb(10.195923%,10.195923%,10.195923%);fill-opacity:1;">
  <use xlink:href="#glyph2-2" x="160.959096" y="147.698813"/>
  <use xlink:href="#glyph2-3" x="165.856657" y="147.698813"/>
</g>
<g clip-path="url(#clip2)" clip-rule="nonzero">
<path style="fill:none;stroke-width:0.5;stroke-linecap:square;stroke-linejoin:round;stroke:rgb(86.665344%,86.665344%,86.665344%);stroke-opacity:1;stroke-miterlimit:10;" d="M 33.123653 30.683734 L 291.803438 30.683734 " transform="matrix(0.995439,0,0,-0.995439,0.574292,152.598479)"/>
</g>
<path style="fill:none;stroke-width:0.6;stroke-linecap:butt;stroke-linejoin:round;stroke:rgb(33.332825%,33.332825%,33.332825%);stroke-opacity:1;stroke-miterlimit:10;" d="M 33.123653 30.683734 L 29.623314 30.683734 " transform="matrix(0.995439,0,0,-0.995439,0.574292,152.598479)"/>
<g style="fill:rgb(33.332825%,33.332825%,33.332825%);fill-opacity:1;">
  <use xlink:href="#glyph0-1" x="15.506119" y="124.703584"/>
</g>
<g style="fill:rgb(33.332825%,33.332825%,33.332825%);fill-opacity:1;">
  <use xlink:href="#glyph0-2" x="19.937328" y="124.703584"/>
</g>
<g style="fill:rgb(33.332825%,33.332825%,33.332825%);fill-opacity:1;">
  <use xlink:href="#glyph0-1" x="22.146857" y="124.703584"/>
</g>
<g clip-path="url(#clip3)" clip-rule="nonzero">
<path style="fill:none;stroke-width:0.5;stroke-linecap:square;stroke-linejoin:round;stroke:rgb(86.665344%,86.665344%,86.665344%);stroke-opacity:1;stroke-miterlimit:10;" d="M 33.123653 49.417612 L 291.803438 49.417612 " transform="matrix(0.995439,0,0,-0.995439,0.574292,152.598479)"/>
</g>
<path style="fill:none;stroke-width:0.6;stroke-linecap:butt;stroke-linejoin:round;stroke:rgb(33.332825%,33.332825%,33.332825%);stroke-opacity:1;stroke-miterlimit:10;" d="M 33.123653 49.417612 L 29.623314 49.417612 " transform="matrix(0.995439,0,0,-0.995439,0.574292,152.598479)"/>
<g style="fill:rgb(33.332825%,33.332825%,33.332825%);fill-opacity:1;">
  <use xlink:href="#glyph0-1" x="15.506119" y="106.052889"/>
</g>
<g style="fill:rgb(33.332825%,33.332825%,33.332825%);fill-opacity:1;">
  <use xlink:href="#glyph0-2" x="19.937328" y="106.052889"/>
</g>
<g style="fill:rgb(33.332825%,33.332825%,33.332825%);fill-opacity:1;">
  <use xlink:href="#glyph0-3" x="22.146857" y="106.052889"/>
</g>
<g clip-path="url(#clip4)" clip-rule="nonzero">
<path style="fill:none;stroke-width:0.5;stroke-linecap:square;stroke-linejoin:round;stroke:rgb(86.665344%,86.665344%,86.665344%);stroke-opacity:1;stroke-miterlimit:10;" d="M 33.123653 68.155415 L 291.803438 68.155415 " transform="matrix(0.995439,0,0,-0.995439,0.574292,152.598479)"/>
</g>
<path style="fill:none;stroke-width:0.6;stroke-linecap:butt;stroke-linejoin:round;stroke:rgb(33.332825%,33.332825%,33.332825%);stroke-opacity:1;stroke-miterlimit:10;" d="M 33.123653 68.155415 L 29.623314 68.155415 " transform="matrix(0.995439,0,0,-0.995439,0.574292,152.598479)"/>
<g style="fill:rgb(33.332825%,33.332825%,33.332825%);fill-opacity:1;">
  <use xlink:href="#glyph0-1" x="15.506119" y="87.402193"/>
</g>
<g style="fill:rgb(33.332825%,33.332825%,33.332825%);fill-opacity:1;">
  <use xlink:href="#glyph0-2" x="19.937328" y="87.402193"/>
</g>
<g style="fill:rgb(33.332825%,33.332825%,33.332825%);fill-opacity:1;">
  <use xlink:href="#glyph0-4" x="22.146857" y="87.402193"/>
</g>
<g clip-path="url(#clip5)" clip-rule="nonzero">
<path style="fill:none;stroke-width:0.5;stroke-linecap:square;stroke-linejoin:round;stroke:rgb(86.665344%,86.665344%,86.665344%);stroke-opacity:1;stroke-miterlimit:10;" d="M 33.123653 86.889294 L 291.803438 86.889294 " transform="matrix(0.995439,0,0,-0.995439,0.574292,152.598479)"/>
</g>
<path style="fill:none;stroke-width:0.6;stroke-linecap:butt;stroke-linejoin:round;stroke:rgb(33.332825%,33.332825%,33.332825%);stroke-opacity:1;stroke-miterlimit:10;" d="M 33.123653 86.889294 L 29.623314 86.889294 " transform="matrix(0.995439,0,0,-0.995439,0.574292,152.598479)"/>
<g style="fill:rgb(33.332825%,33.332825%,33.332825%);fill-opacity:1;">
  <use xlink:href="#glyph0-1" x="15.506119" y="68.751498"/>
</g>
<g style="fill:rgb(33.332825%,33.332825%,33.332825%);fill-opacity:1;">
  <use xlink:href="#glyph0-2" x="19.937328" y="68.751498"/>
</g>
<g style="fill:rgb(33.332825%,33.332825%,33.332825%);fill-opacity:1;">
  <use xlink:href="#glyph0-5" x="22.146857" y="68.751498"/>
</g>
<g clip-path="url(#clip6)" clip-rule="nonzero">
<path style="fill:none;stroke-width:0.5;stroke-linecap:square;stroke-linejoin:round;stroke:rgb(86.665344%,86.665344%,86.665344%);stroke-opacity:1;stroke-miterlimit:10;" d="M 33.123653 105.627097 L 291.803438 105.627097 " transform="matrix(0.995439,0,0,-0.995439,0.574292,152.598479)"/>
</g>
<path style="fill:none;stroke-width:0.6;stroke-linecap:butt;stroke-linejoin:round;stroke:rgb(33.332825%,33.332825%,33.332825%);stroke-opacity:1;stroke-miterlimit:10;" d="M 33.123653 105.627097 L 29.623314 105.627097 " transform="matrix(0.995439,0,0,-0.995439,0.574292,152.598479)"/>
<g style="fill:rgb(33.332825%,33.332825%,33.332825%);fill-opacity:1;">
  <use xlink:href="#glyph0-1" x="15.506119" y="50.100803"/>
</g>
<g style="fill:rgb(33.332825%,33.332825%,33.332825%);fill-opacity:1;">
  <use xlink:href="#glyph0-2" x="19.937328" y="50.100803"/>
</g>
<g style="fill:rgb(33.332825%,33.332825%,33.332825%);fill-opacity:1;">
  <use xlink:href="#glyph0-6" x="22.146857" y="50.100803"/>
</g>
<g clip-path="url(#clip7)" clip-rule="nonzero">
<path style="fill:none;stroke-width:0.5;stroke-linecap:square;stroke-linejoin:round;stroke:rgb(86.665344%,86.665344%,86.665344%);stroke-opacity:1;stroke-miterlimit:10;" d="M 33.123653 124.360976 L 291.803438 124.360976 " transform="matrix(0.995439,0,0,-0.995439,0.574292,152.598479)"/>
</g>
<path style="fill:none;stroke-width:0.6;stroke-linecap:butt;stroke-linejoin:round;stroke:rgb(33.332825%,33.332825%,33.332825%);stroke-opacity:1;stroke-miterlimit:10;" d="M 33.123653 124.360976 L 29.623314 124.360976 " transform="matrix(0.995439,0,0,-0.995439,0.574292,152.598479)"/>
<g style="fill:rgb(33.332825%,33.332825%,33.332825%);fill-opacity:1;">
  <use xlink:href="#glyph0-0" x="15.506119" y="31.450108"/>
</g>
<g style="fill:rgb(33.332825%,33.332825%,33.332825%);fill-opacity:1;">
  <use xlink:href="#glyph0-2" x="19.937328" y="31.450108"/>
</g>
<g style="fill:rgb(33.332825%,33.332825%,33.332825%);fill-opacity:1;">
  <use xlink:href="#glyph0-1" x="22.146857" y="31.450108"/>
</g>
<g style="fill:rgb(10.195923%,10.195923%,10.195923%);fill-opacity:1;">
  <use xlink:href="#glyph3-0" x="9.611252" y="105.981472"/>
</g>
<g style="fill:rgb(10.195923%,10.195923%,10.195923%);fill-opacity:1;">
  <use xlink:href="#glyph3-1" x="9.611252" y="101.593762"/>
</g>
<g style="fill:rgb(10.195923%,10.195923%,10.195923%);fill-opacity:1;">
  <use xlink:href="#glyph3-2" x="9.611252" y="98.484072"/>
</g>
<g style="fill:rgb(10.195923%,10.195923%,10.195923%);fill-opacity:1;">
  <use xlink:href="#glyph3-3" x="9.611252" y="93.614291"/>
</g>
<g style="fill:rgb(10.195923%,10.195923%,10.195923%);fill-opacity:1;">
  <use xlink:href="#glyph3-3" x="9.611252" y="89.461411"/>
</g>
<g style="fill:rgb(10.195923%,10.195923%,10.195923%);fill-opacity:1;">
  <use xlink:href="#glyph3-4" x="9.611252" y="85.308532"/>
</g>
<g style="fill:rgb(10.195923%,10.195923%,10.195923%);fill-opacity:1;">
  <use xlink:href="#glyph3-5" x="9.611252" y="82.429816"/>
  <use xlink:href="#glyph3-6" x="9.611252" y="77.532255"/>
</g>
<g style="fill:rgb(10.195923%,10.195923%,10.195923%);fill-opacity:1;">
  <use xlink:href="#glyph3-7" x="9.611252" y="72.47561"/>
</g>
<g style="fill:rgb(10.195923%,10.195923%,10.195923%);fill-opacity:1;">
  <use xlink:href="#glyph3-1" x="9.611252" y="69.350024"/>
</g>
<g style="fill:rgb(10.195923%,10.195923%,10.195923%);fill-opacity:1;">
  <use xlink:href="#glyph3-2" x="9.611252" y="66.240335"/>
</g>
<g style="fill:rgb(10.195923%,10.195923%,10.195923%);fill-opacity:1;">
  <use xlink:href="#glyph3-8" x="9.611252" y="61.370553"/>
  <use xlink:href="#glyph3-9" x="9.611252" y="56.313721"/>
  <use xlink:href="#glyph3-10" x="9.611252" y="51.599321"/>
</g>
<g style="fill:rgb(10.195923%,10.195923%,10.195923%);fill-opacity:1;">
  <use xlink:href="#glyph3-11" x="9.611252" y="49.063036"/>
</g>
<g style="fill:rgb(10.195923%,10.195923%,10.195923%);fill-opacity:1;">
  <use xlink:href="#glyph3-2" x="9.611252" y="46.853067"/>
</g>
<g style="fill:rgb(10.195923%,10.195923%,10.195923%);fill-opacity:1;">
  <use xlink:href="#glyph3-3" x="9.611252" y="41.983285"/>
</g>
<g style="fill:rgb(10.195923%,10.195923%,10.195923%);fill-opacity:1;">
  <use xlink:href="#glyph3-3" x="9.611252" y="37.830406"/>
</g>
<g clip-path="url(#clip8)" clip-rule="nonzero">
<path style="fill:none;stroke-width:1.5;stroke-linecap:square;stroke-linejoin:round;stroke:rgb(10.195923%,10.195923%,10.195923%);stroke-opacity:1;stroke-miterlimit:10;" d="M 44.884323 71.35752 L 61.342196 62.284891 L 70.972053 57.55237 L 77.800069 54.58179 L 83.101592 52.505916 L 91.091156 49.739393 L 97.05586 47.926437 L 103.8878 46.089936 L 112.159903 44.139634 L 120.345674 42.452251 L 129.975531 40.70993 L 140.037044 39.124574 L 150.651863 37.680488 L 161.71011 36.393368 L 173.596352 35.216124 L 186.852121 34.121287 L 201.665777 33.108857 L 217.927443 32.237696 L 234.193033 31.601984 L 250.466472 31.186024 L 271.170272 30.903486 L 280.046693 30.836775 " transform="matrix(0.995439,0,0,-0.995439,0.574292,152.598479)"/>
</g>
<path style="fill:none;stroke-width:1.5;stroke-linecap:square;stroke-linejoin:round;stroke:rgb(79.998779%,0%,19.999695%);stroke-opacity:1;stroke-miterlimit:10;" d="M 44.884323 72.016776 L 61.342196 63.642646 L 70.972053 59.510519 L 77.800069 57.050079 L 83.101592 55.421558 L 87.429927 54.267858 L 94.261867 52.757062 L 99.559466 51.827039 L 105.787087 50.987271 L 112.159903 50.394725 L 118.281572 50.065097 L 124.842746 49.963069 L 131.258727 50.112187 L 137.294066 50.469284 L 143.635487 51.073603 L 149.808171 51.885901 L 155.839585 52.894407 L 161.71011 54.083423 L 167.659117 55.500041 L 173.596352 57.140334 L 179.435483 58.988608 L 185.364869 61.111571 L 191.282483 63.501377 L 197.21187 66.177645 L 203.133408 69.148225 L 209.051022 72.428812 L 214.976484 76.027255 L 220.88625 79.931781 L 226.796015 84.134543 L 232.713629 88.615919 L 238.631243 93.352365 L 246.028261 99.572138 L 254.900758 107.385115 L 265.252658 116.858007 L 278.56729 129.387809 L 280.046693 130.800502 " transform="matrix(0.995439,0,0,-0.995439,0.574292,152.598479)"/>
<path style="fill:none;stroke-width:0.6;stroke-linecap:square;stroke-linejoin:miter;stroke:rgb(33.332825%,33.332825%,33.332825%);stroke-opacity:1;stroke-miterlimit:10;" d="M 33.123653 30.683734 L 33.123653 135.603658 " transform="matrix(0.995439,0,0,-0.995439,0.574292,152.598479)"/>
<path style="fill:none;stroke-width:0.6;stroke-linecap:square;stroke-linejoin:miter;stroke:rgb(33.332825%,33.332825%,33.332825%);stroke-opacity:1;stroke-miterlimit:10;" d="M 33.123653 30.683734 L 291.803438 30.683734 " transform="matrix(0.995439,0,0,-0.995439,0.574292,152.598479)"/>
<path style="fill:none;stroke-width:0.6;stroke-linecap:round;stroke-linejoin:round;stroke:rgb(79.998779%,0%,19.999695%);stroke-opacity:1;stroke-miterlimit:10;" d="M 152.845461 66.577908 C 143.812074 61.374489 134.774763 56.167146 125.741376 50.963726 " transform="matrix(0.995439,0,0,-0.995439,0.574292,152.598479)"/>
<g style="fill:rgb(79.998779%,0%,19.999695%);fill-opacity:1;">
  <use xlink:href="#glyph0-7" x="133.970702" y="72.601689"/>
</g>
<g style="fill:rgb(79.998779%,0%,19.999695%);fill-opacity:1;">
  <use xlink:href="#glyph0-8" x="135.900535" y="72.601689"/>
</g>
<g style="fill:rgb(79.998779%,0%,19.999695%);fill-opacity:1;">
  <use xlink:href="#glyph0-9" x="140.163539" y="72.601689"/>
</g>
<g style="fill:rgb(79.998779%,0%,19.999695%);fill-opacity:1;">
  <use xlink:href="#glyph0-10" x="145.857105" y="72.601689"/>
</g>
<g style="fill:rgb(79.998779%,0%,19.999695%);fill-opacity:1;">
  <use xlink:href="#glyph0-11" x="150.148303" y="72.601689"/>
</g>
<g style="fill:rgb(79.998779%,0%,19.999695%);fill-opacity:1;">
  <use xlink:href="#glyph0-12" x="153.772352" y="72.601689"/>
</g>
<g style="fill:rgb(79.998779%,0%,19.999695%);fill-opacity:1;">
  <use xlink:href="#glyph0-13" x="156.509183" y="72.601689"/>
</g>
<g style="fill:rgb(79.998779%,0%,19.999695%);fill-opacity:1;">
  <use xlink:href="#glyph0-14" x="158.718712" y="72.601689"/>
</g>
<g style="fill:rgb(79.998779%,0%,19.999695%);fill-opacity:1;">
  <use xlink:href="#glyph0-15" x="162.841868" y="72.601689"/>
</g>
<g style="fill:rgb(79.998779%,0%,19.999695%);fill-opacity:1;">
  <use xlink:href="#glyph0-7" x="167.120589" y="72.601689"/>
</g>
<g style="fill:rgb(79.998779%,0%,19.999695%);fill-opacity:1;">
  <use xlink:href="#glyph0-16" x="169.050422" y="72.601689"/>
</g>
<g style="fill:rgb(79.998779%,0%,19.999695%);fill-opacity:1;">
  <use xlink:href="#glyph0-17" x="170.980256" y="72.601689"/>
</g>
<g style="fill:rgb(79.998779%,0%,19.999695%);fill-opacity:1;">
  <use xlink:href="#glyph0-15" x="175.399151" y="72.601689"/>
</g>
<g style="fill:rgb(79.998779%,0%,19.999695%);fill-opacity:1;">
  <use xlink:href="#glyph0-12" x="179.677871" y="72.601689"/>
</g>
<g style="fill:rgb(79.998779%,0%,19.999695%);fill-opacity:1;">
  <use xlink:href="#glyph0-16" x="182.414703" y="72.601689"/>
</g>
<g style="fill:rgb(79.998779%,0%,19.999695%);fill-opacity:1;">
  <use xlink:href="#glyph0-8" x="184.344537" y="72.601689"/>
</g>
<g style="fill:rgb(79.998779%,0%,19.999695%);fill-opacity:1;">
  <use xlink:href="#glyph0-18" x="188.60754" y="72.601689"/>
</g>
<g style="fill:rgb(79.998779%,0%,19.999695%);fill-opacity:1;">
  <use xlink:href="#glyph0-13" x="193.026272" y="72.601689"/>
</g>
<g style="fill:rgb(79.998779%,0%,19.999695%);fill-opacity:1;">
  <use xlink:href="#glyph0-7" x="195.235801" y="72.601689"/>
</g>
<g style="fill:rgb(79.998779%,0%,19.999695%);fill-opacity:1;">
  <use xlink:href="#glyph0-8" x="197.165635" y="72.601689"/>
</g>
<g style="fill:rgb(79.998779%,0%,19.999695%);fill-opacity:1;">
  <use xlink:href="#glyph0-11" x="201.428638" y="72.601689"/>
</g>
<g style="fill:rgb(79.998779%,0%,19.999695%);fill-opacity:1;">
  <use xlink:href="#glyph0-11" x="205.052686" y="72.601689"/>
</g>
<g style="fill:rgb(79.998779%,0%,19.999695%);fill-opacity:1;">
  <use xlink:href="#glyph0-19" x="208.676734" y="72.601689"/>
</g>
<g style="fill:rgb(79.998779%,0%,19.999695%);fill-opacity:1;">
  <use xlink:href="#glyph0-1" x="133.970702" y="80.96474"/>
</g>
<g style="fill:rgb(79.998779%,0%,19.999695%);fill-opacity:1;">
  <use xlink:href="#glyph0-2" x="138.401911" y="80.96474"/>
</g>
<g style="fill:rgb(79.998779%,0%,19.999695%);fill-opacity:1;">
  <use xlink:href="#glyph0-3" x="140.61144" y="80.96474"/>
</g>
<g style="fill:rgb(79.998779%,0%,19.999695%);fill-opacity:1;">
  <use xlink:href="#glyph0-1" x="145.042649" y="80.96474"/>
</g>
<g style="fill:rgb(79.998779%,0%,19.999695%);fill-opacity:1;">
  <use xlink:href="#glyph0-5" x="149.473858" y="80.96474"/>
</g>
<g style="fill:rgb(79.998779%,0%,19.999695%);fill-opacity:1;">
  <use xlink:href="#glyph0-13" x="153.905068" y="80.96474"/>
</g>
<g style="fill:rgb(79.998779%,0%,19.999695%);fill-opacity:1;">
  <use xlink:href="#glyph0-15" x="156.114597" y="80.96474"/>
</g>
<g style="fill:rgb(79.998779%,0%,19.999695%);fill-opacity:1;">
  <use xlink:href="#glyph0-12" x="160.393317" y="80.96474"/>
</g>
<g style="fill:rgb(79.998779%,0%,19.999695%);fill-opacity:1;">
  <use xlink:href="#glyph0-13" x="163.130149" y="80.96474"/>
</g>
<g style="fill:rgb(79.998779%,0%,19.999695%);fill-opacity:1;">
  <use xlink:href="#glyph0-11" x="165.339678" y="80.96474"/>
</g>
<g style="fill:rgb(79.998779%,0%,19.999695%);fill-opacity:1;">
  <use xlink:href="#glyph0-12" x="168.963726" y="80.96474"/>
</g>
<g style="fill:rgb(79.998779%,0%,19.999695%);fill-opacity:1;">
  <use xlink:href="#glyph0-10" x="171.700558" y="80.96474"/>
</g>
<g style="fill:rgb(79.998779%,0%,19.999695%);fill-opacity:1;">
  <use xlink:href="#glyph0-20" x="175.991756" y="80.96474"/>
</g>
<g style="fill:rgb(79.998779%,0%,19.999695%);fill-opacity:1;">
  <use xlink:href="#glyph0-13" x="180.410651" y="80.96474"/>
</g>
<g style="fill:rgb(79.998779%,0%,19.999695%);fill-opacity:1;">
  <use xlink:href="#glyph0-3" x="182.62018" y="80.96474"/>
</g>
<g style="fill:rgb(79.998779%,0%,19.999695%);fill-opacity:1;">
  <use xlink:href="#glyph0-6" x="187.051389" y="80.96474"/>
</g>
<path style="fill-rule:nonzero;fill:rgb(79.998779%,0%,19.999695%);fill-opacity:1;stroke-width:1;stroke-linecap:butt;stroke-linejoin:round;stroke:rgb(79.998779%,0%,19.999695%);stroke-opacity:1;stroke-miterlimit:10;" d="M 124.006903 47.463387 C 124.670084 47.463387 125.305796 47.726305 125.776693 48.193279 C 126.243667 48.664176 126.506585 49.299888 126.506585 49.963069 C 126.506585 50.62625 126.243667 51.261962 125.776693 51.728935 C 125.305796 52.199833 124.670084 52.462751 124.006903 52.462751 C 123.343722 52.462751 122.70801 52.199833 122.241037 51.728935 C 121.770139 51.261962 121.507221 50.62625 121.507221 49.963069 C 121.507221 49.299888 121.770139 48.664176 122.241037 48.193279 C 122.70801 47.726305 123.343722 47.463387 124.006903 47.463387 Z M 124.006903 47.463387 " transform="matrix(0.995439,0,0,-0.995439,0.574292,152.598479)"/>
<path style="fill:none;stroke-width:1.5;stroke-linecap:square;stroke-linejoin:round;stroke:rgb(10.195923%,10.195923%,10.195923%);stroke-opacity:1;stroke-miterlimit:10;" d="M 69.241504 144.633121 L 80.441021 144.633121 " transform="matrix(0.995439,0,0,-0.995439,0.574292,152.598479)"/>
<g style="fill:rgb(10.195923%,10.195923%,10.195923%);fill-opacity:1;">
  <use xlink:href="#glyph0-12" x="86.224071" y="11.06256"/>
</g>
<g style="fill:rgb(10.195923%,10.195923%,10.195923%);fill-opacity:1;">
  <use xlink:href="#glyph0-21" x="88.960903" y="11.06256"/>
</g>
<g style="fill:rgb(10.195923%,10.195923%,10.195923%);fill-opacity:1;">
  <use xlink:href="#glyph0-15" x="91.821865" y="11.06256"/>
</g>
<g style="fill:rgb(10.195923%,10.195923%,10.195923%);fill-opacity:1;">
  <use xlink:href="#glyph0-16" x="96.100585" y="11.06256"/>
</g>
<g style="fill:rgb(10.195923%,10.195923%,10.195923%);fill-opacity:1;">
  <use xlink:href="#glyph0-18" x="98.030419" y="11.06256"/>
</g>
<g style="fill:rgb(10.195923%,10.195923%,10.195923%);fill-opacity:1;">
  <use xlink:href="#glyph0-16" x="102.449151" y="11.06256"/>
</g>
<g style="fill:rgb(10.195923%,10.195923%,10.195923%);fill-opacity:1;">
  <use xlink:href="#glyph0-18" x="104.378985" y="11.06256"/>
</g>
<g style="fill:rgb(10.195923%,10.195923%,10.195923%);fill-opacity:1;">
  <use xlink:href="#glyph0-22" x="108.797716" y="11.06256"/>
</g>
<g style="fill:rgb(10.195923%,10.195923%,10.195923%);fill-opacity:1;">
  <use xlink:href="#glyph0-13" x="113.21661" y="11.06256"/>
</g>
<g style="fill:rgb(10.195923%,10.195923%,10.195923%);fill-opacity:1;">
  <use xlink:href="#glyph0-7" x="115.426139" y="11.06256"/>
</g>
<g style="fill:rgb(10.195923%,10.195923%,10.195923%);fill-opacity:1;">
  <use xlink:href="#glyph0-8" x="117.355973" y="11.06256"/>
</g>
<g style="fill:rgb(10.195923%,10.195923%,10.195923%);fill-opacity:1;">
  <use xlink:href="#glyph0-11" x="121.618977" y="11.06256"/>
</g>
<g style="fill:rgb(10.195923%,10.195923%,10.195923%);fill-opacity:1;">
  <use xlink:href="#glyph0-11" x="125.243025" y="11.06256"/>
</g>
<path style="fill:none;stroke-width:1.5;stroke-linecap:square;stroke-linejoin:round;stroke:rgb(79.998779%,0%,19.999695%);stroke-opacity:1;stroke-miterlimit:10;" d="M 142.870279 144.633121 L 154.069795 144.633121 " transform="matrix(0.995439,0,0,-0.995439,0.574292,152.598479)"/>
<g style="fill:rgb(10.195923%,10.195923%,10.195923%);fill-opacity:1;">
  <use xlink:href="#glyph0-14" x="159.516393" y="11.06256"/>
</g>
<g style="fill:rgb(10.195923%,10.195923%,10.195923%);fill-opacity:1;">
  <use xlink:href="#glyph0-15" x="163.639549" y="11.06256"/>
</g>
<g style="fill:rgb(10.195923%,10.195923%,10.195923%);fill-opacity:1;">
  <use xlink:href="#glyph0-7" x="167.91827" y="11.06256"/>
</g>
<g style="fill:rgb(10.195923%,10.195923%,10.195923%);fill-opacity:1;">
  <use xlink:href="#glyph0-16" x="169.848103" y="11.06256"/>
</g>
<g style="fill:rgb(10.195923%,10.195923%,10.195923%);fill-opacity:1;">
  <use xlink:href="#glyph0-17" x="171.777937" y="11.06256"/>
</g>
<g style="fill:rgb(10.195923%,10.195923%,10.195923%);fill-opacity:1;">
  <use xlink:href="#glyph0-15" x="176.196832" y="11.06256"/>
</g>
<g style="fill:rgb(10.195923%,10.195923%,10.195923%);fill-opacity:1;">
  <use xlink:href="#glyph0-12" x="180.475552" y="11.06256"/>
</g>
<g style="fill:rgb(10.195923%,10.195923%,10.195923%);fill-opacity:1;">
  <use xlink:href="#glyph0-16" x="183.212384" y="11.06256"/>
</g>
<g style="fill:rgb(10.195923%,10.195923%,10.195923%);fill-opacity:1;">
  <use xlink:href="#glyph0-8" x="185.142218" y="11.06256"/>
</g>
<g style="fill:rgb(10.195923%,10.195923%,10.195923%);fill-opacity:1;">
  <use xlink:href="#glyph0-18" x="189.405221" y="11.06256"/>
</g>
<g style="fill:rgb(10.195923%,10.195923%,10.195923%);fill-opacity:1;">
  <use xlink:href="#glyph0-13" x="193.823953" y="11.06256"/>
</g>
<g style="fill:rgb(10.195923%,10.195923%,10.195923%);fill-opacity:1;">
  <use xlink:href="#glyph0-7" x="196.033482" y="11.06256"/>
</g>
<g style="fill:rgb(10.195923%,10.195923%,10.195923%);fill-opacity:1;">
  <use xlink:href="#glyph0-8" x="197.963316" y="11.06256"/>
</g>
<g style="fill:rgb(10.195923%,10.195923%,10.195923%);fill-opacity:1;">
  <use xlink:href="#glyph0-11" x="202.226319" y="11.06256"/>
</g>
<g style="fill:rgb(10.195923%,10.195923%,10.195923%);fill-opacity:1;">
  <use xlink:href="#glyph0-11" x="205.850367" y="11.06256"/>
</g>
<g style="fill:rgb(10.195923%,10.195923%,10.195923%);fill-opacity:1;">
  <use xlink:href="#glyph0-13" x="209.474415" y="11.06256"/>
</g>
<g style="fill:rgb(10.195923%,10.195923%,10.195923%);fill-opacity:1;">
  <use xlink:href="#glyph0-23" x="211.683944" y="11.06256"/>
</g>
<g style="fill:rgb(10.195923%,10.195923%,10.195923%);fill-opacity:1;">
  <use xlink:href="#glyph0-3" x="214.404896" y="11.06256"/>
</g>
<g style="fill:rgb(10.195923%,10.195923%,10.195923%);fill-opacity:1;">
  <use xlink:href="#glyph0-1" x="218.836105" y="11.06256"/>
</g>
<g style="fill:rgb(10.195923%,10.195923%,10.195923%);fill-opacity:1;">
  <use xlink:href="#glyph0-0" x="223.267314" y="11.06256"/>
</g>
<g style="fill:rgb(10.195923%,10.195923%,10.195923%);fill-opacity:1;">
  <use xlink:href="#glyph0-6" x="227.698523" y="11.06256"/>
</g>
<g style="fill:rgb(10.195923%,10.195923%,10.195923%);fill-opacity:1;">
  <use xlink:href="#glyph0-24" x="232.129733" y="11.06256"/>
</g>
<g style="fill:rgb(10.195923%,10.195923%,10.195923%);fill-opacity:1;">
  <use xlink:href="#glyph0-3" x="234.650554" y="11.06256"/>
</g>
<g style="fill:rgb(10.195923%,10.195923%,10.195923%);fill-opacity:1;">
  <use xlink:href="#glyph0-1" x="239.081763" y="11.06256"/>
</g>
<g style="fill:rgb(10.195923%,10.195923%,10.195923%);fill-opacity:1;">
  <use xlink:href="#glyph0-3" x="243.512973" y="11.06256"/>
</g>
<g style="fill:rgb(10.195923%,10.195923%,10.195923%);fill-opacity:1;">
  <use xlink:href="#glyph0-0" x="247.944182" y="11.06256"/>
</g>
<g style="fill:rgb(10.195923%,10.195923%,10.195923%);fill-opacity:1;">
  <use xlink:href="#glyph0-25" x="252.375391" y="11.06256"/>
</g>
</g>
</svg>
